<svg width="209" height="61" viewBox="0 0 209 61" fill="none" xmlns="http://www.w3.org/2000/svg">
<g id="Group 360">
<g id="Group">
<path id="Vector" d="M11.8481 60.3471C11.3722 60.3471 10.9072 60.3398 10.4349 60.3324C9.45342 60.3176 8.47561 60.2327 7.50886 60.0778C6.60485 59.9228 5.73404 59.6313 4.91489 59.218C4.10681 58.8085 3.36884 58.2734 2.7305 57.6277C2.08108 56.9894 1.54236 56.2514 1.13278 55.4433C0.71952 54.6279 0.43171 53.7533 0.284115 52.8493C0.125451 51.8789 0.0368957 50.8974 0.0258261 49.9159C0.0147565 49.5875 0 48.4879 0 48.4879V12.3383C0 12.3383 0.0147565 11.2535 0.0258261 10.9399C0.0368957 9.95839 0.125451 8.97689 0.284115 8.01014C0.43171 7.10613 0.719524 6.22794 1.13648 5.40879C1.54605 4.59702 2.08108 3.85905 2.72681 3.2207C3.36884 2.57498 4.11051 2.03626 4.91859 1.6193C5.73405 1.20973 6.60485 0.92192 7.50518 0.770636C8.47561 0.611972 9.45711 0.523414 10.4386 0.512344L11.8518 0.493896H196.754L198.182 0.516035C199.157 0.527104 200.131 0.611972 201.09 0.770636C201.998 0.92561 202.88 1.21342 203.706 1.63037C205.33 2.46797 206.651 3.79263 207.485 5.41617C207.89 6.23163 208.175 7.09875 208.322 7.99538C208.485 8.9732 208.577 9.95839 208.595 10.9473C208.599 11.3901 208.599 11.866 208.599 12.342C208.61 12.9287 208.61 13.4859 208.61 14.0504V46.8017C208.61 47.3699 208.61 47.9234 208.599 48.4842C208.599 48.9934 208.599 49.4584 208.592 49.938C208.573 50.9085 208.485 51.8789 208.326 52.8383C208.182 53.746 207.894 54.6278 207.481 55.4507C207.068 56.2514 206.533 56.9857 205.891 57.6203C205.252 58.2661 204.511 58.8085 203.699 59.2217C202.876 59.6387 201.998 59.9302 201.09 60.0815C200.123 60.2364 199.145 60.325 198.164 60.3361C197.706 60.3471 197.227 60.3545 196.758 60.3545L195.061 60.3582L11.8481 60.3471Z" fill="white"/>
<g id="Group_2">
<path id="Vector_2" d="M43.3721 30.3029C43.4098 27.4577 44.8907 24.8294 47.297 23.3383C45.7709 21.1435 43.3078 19.8008 40.6484 19.7171C37.8492 19.4204 35.1406 21.4022 33.7127 21.4022C32.2583 21.4022 30.0635 19.7437 27.7025 19.7932C24.5935 19.8959 21.764 21.6342 20.2492 24.3691C17.0269 29.9872 19.4295 38.2414 22.5158 42.783C24.0608 45.0082 25.8665 47.4883 28.2275 47.4008C30.5395 47.3057 31.4008 45.9173 34.1924 45.9173C36.9539 45.9173 37.7661 47.4008 40.1762 47.3437C42.6543 47.3057 44.2183 45.1109 45.7066 42.8667C46.8173 41.2806 47.671 39.5308 48.2376 37.6784C45.2911 36.427 43.3758 33.5209 43.3721 30.3029ZM38.8238 16.7312C40.1762 15.0956 40.841 12.9959 40.6824 10.8734C38.616 11.0902 36.7083 12.0868 35.337 13.6578C33.9846 15.2097 33.2971 17.2371 33.4331 19.2949C35.5221 19.3177 37.5092 18.3706 38.8238 16.7312Z" fill="black"/>
<g id="Group_3">
<path id="Vector_3" d="M76.871 41.5915H69.4655L67.6833 46.8422H64.5469L71.5613 27.4077H74.8194L81.8376 46.8422H78.6458L76.871 41.5915ZM70.2293 39.1673H76.0998L73.2033 30.6437H73.1221C73.1258 30.6437 70.2293 39.1673 70.2293 39.1673ZM96.9918 39.7577C96.9918 44.1597 94.634 46.9898 91.077 46.9898C89.2394 47.0857 87.5089 46.1227 86.6196 44.5102H86.5532V51.5283H83.6456V32.6731H86.461V35.0309H86.5126C87.4388 33.4295 89.173 32.4665 91.0253 32.5255C94.6229 32.5292 96.9918 35.3704 96.9918 39.7577ZM94.003 39.7577C94.003 36.8906 92.5197 35.0051 90.2578 35.0051C88.0365 35.0051 86.5421 36.9312 86.5421 39.7613C86.5421 42.6173 88.0365 44.5286 90.2578 44.5286C92.5197 44.5286 94.003 42.6542 94.003 39.7577ZM112.585 39.7577C112.585 44.1597 110.227 46.9898 106.67 46.9898C104.833 47.0857 103.102 46.1227 102.213 44.5102H102.147V51.5283H99.2389V32.6731H102.054V35.0309H102.106C103.036 33.4295 104.766 32.4665 106.619 32.5255C110.216 32.5292 112.585 35.3704 112.585 39.7577ZM109.596 39.7577C109.596 36.8906 108.113 35.0051 105.851 35.0051C103.63 35.0051 102.135 36.9312 102.135 39.7613C102.135 42.6173 103.63 44.5286 105.851 44.5286C108.113 44.5286 109.596 42.6542 109.596 39.7577ZM122.891 41.4292C123.109 43.3553 124.979 44.6209 127.536 44.6209C129.987 44.6209 131.75 43.3553 131.75 41.6173C131.75 40.1082 130.688 39.2079 128.167 38.588L125.647 37.9828C122.079 37.1194 120.422 35.4516 120.422 32.7432C120.422 29.3891 123.345 27.0867 127.492 27.0867C131.599 27.0867 134.414 29.3891 134.51 32.7432H131.573C131.396 30.8024 129.795 29.6327 127.452 29.6327C125.109 29.6327 123.507 30.8171 123.507 32.5403C123.507 33.9166 124.533 34.721 127.038 35.3409L129.178 35.8685C133.167 36.8095 134.82 38.4145 134.82 41.2557C134.82 44.8903 131.924 47.1706 127.319 47.1706C123.009 47.1706 120.098 44.9456 119.91 41.4329C119.913 41.4292 122.891 41.4292 122.891 41.4292ZM141.104 29.3227V32.6768H143.798V34.9793H141.104V42.7907C141.104 44.0047 141.643 44.5692 142.827 44.5692C143.148 44.5619 143.466 44.5397 143.783 44.5028V46.7905C143.248 46.8902 142.709 46.9344 142.167 46.9271C139.3 46.9271 138.178 45.8496 138.178 43.1044V34.983H136.115V32.6805H138.178V29.3227H141.104ZM145.355 39.7577C145.355 35.3003 147.982 32.4997 152.074 32.4997C156.181 32.4997 158.797 35.3003 158.797 39.7577C158.797 44.2298 156.196 47.0156 152.074 47.0156C147.956 47.0193 145.355 44.2298 145.355 39.7577ZM155.834 39.7577C155.834 36.6988 154.432 34.8944 152.074 34.8944C149.72 34.8944 148.318 36.7135 148.318 39.7577C148.318 42.8276 149.72 44.6172 152.074 44.6172C154.432 44.6209 155.834 42.8313 155.834 39.7577ZM161.195 32.6731H163.97V35.0826H164.037C164.424 33.5292 165.845 32.4628 167.442 32.5218C167.778 32.5218 168.114 32.5587 168.439 32.6288V35.3483C168.014 35.2191 167.575 35.1601 167.132 35.1712C166.276 35.1379 165.45 35.4774 164.867 36.1047C164.284 36.732 164.003 37.5806 164.103 38.433V46.8348H161.192V32.6731H161.195ZM181.851 42.68C181.46 45.2519 178.955 47.0156 175.752 47.0156C171.63 47.0156 169.073 44.2556 169.073 39.8241C169.073 35.3815 171.645 32.496 175.63 32.496C179.549 32.496 182.014 35.1896 182.014 39.4846V40.4809H172.007V40.658C171.914 41.7133 172.276 42.7575 173.007 43.525C173.737 44.2925 174.759 44.7095 175.818 44.6726C177.232 44.8054 178.56 43.9936 179.091 42.68H181.851ZM172.018 38.4514H179.102C179.154 37.5032 178.811 36.577 178.15 35.8944C177.49 35.2117 176.575 34.8354 175.626 34.8538C174.671 34.8465 173.752 35.2228 173.073 35.9017C172.398 36.577 172.014 37.4958 172.018 38.4514Z" fill="black"/>
</g>
</g>
</g>
</g>
</svg>
