<svg width="262" height="75" viewBox="0 0 262 75" fill="none" xmlns="http://www.w3.org/2000/svg">
<path d="M15.785 74.8964C15.1893 74.8964 14.6076 74.8872 14.0166 74.8779C12.7884 74.8595 11.5648 74.7533 10.3551 74.5593C9.22386 74.3654 8.13419 74.0006 7.10916 73.4835C6.09798 72.971 5.17453 72.3015 4.37575 71.4935C3.56311 70.6947 2.88899 69.7712 2.37648 68.7601C1.85934 67.7397 1.4992 66.6454 1.31451 65.5141C1.11597 64.2998 1.00515 63.0716 0.991301 61.8434C0.97745 61.4325 0.958984 60.0566 0.958984 60.0566V14.8214C0.958984 14.8214 0.97745 13.4639 0.991301 13.0714C1.00515 11.8432 1.11597 10.6151 1.31451 9.40534C1.4992 8.27411 1.85935 7.1752 2.3811 6.15017C2.89361 5.13438 3.56311 4.21093 4.37113 3.41215C5.17453 2.60413 6.1026 1.93001 7.11378 1.40826C8.13419 0.895744 9.22386 0.535601 10.3505 0.346294C11.5648 0.147752 12.793 0.0369359 14.0212 0.0230841L15.7896 0H247.165L248.951 0.0277024C250.17 0.0415541 251.389 0.147752 252.59 0.346294C253.726 0.540218 254.829 0.900361 255.863 1.42211C257.895 2.47023 259.548 4.12782 260.591 6.15941C261.099 7.17982 261.455 8.26487 261.64 9.38686C261.843 10.6104 261.958 11.8432 261.981 13.0807C261.986 13.6347 261.986 14.2304 261.986 14.826C262 15.5601 262 16.2573 262 16.9638V57.9465C262 58.6575 262 59.3501 261.986 60.0519C261.986 60.6891 261.986 61.2709 261.977 61.8711C261.954 63.0855 261.843 64.2998 261.644 65.5003C261.464 66.6361 261.104 67.7397 260.587 68.7693C260.07 69.7712 259.4 70.6901 258.597 71.4842C257.798 72.2923 256.87 72.971 255.854 73.4881C254.825 74.0099 253.726 74.3746 252.59 74.5639C251.38 74.7579 250.157 74.8687 248.928 74.8825C248.356 74.8964 247.756 74.9056 247.169 74.9056L245.045 74.9102L15.785 74.8964Z" fill="white"/>
<path d="M55.2323 37.3011C55.2796 33.7408 57.1326 30.4518 60.1438 28.586C58.234 25.8396 55.152 24.1594 51.8241 24.0547C48.3213 23.6835 44.932 26.1633 43.1452 26.1633C41.3253 26.1633 38.5789 24.088 35.6244 24.1499C31.734 24.2784 28.1935 26.4536 26.2979 29.8759C22.2657 36.9061 25.2721 47.2347 29.1342 52.9179C31.0675 55.7023 33.3271 58.8057 36.2815 58.6962C39.1745 58.5772 40.2522 56.8399 43.7455 56.8399C47.201 56.8399 48.2174 58.6962 51.2332 58.6248C54.3342 58.5772 56.2912 55.8308 58.1537 53.0226C59.5434 51.0378 60.6117 48.8483 61.3208 46.5303C57.6337 44.9643 55.2371 41.3279 55.2323 37.3011ZM49.5409 20.3183C51.2332 18.2716 52.0652 15.6442 51.8667 12.9883C49.2809 13.2596 46.8938 14.5066 45.1778 16.4724C43.4855 18.4144 42.6252 20.9514 42.7954 23.5264C45.4095 23.5549 47.8959 22.3698 49.5409 20.3183Z" fill="black"/>
<path d="M97.1521 51.4268H87.8853L85.6551 57.9971H81.7305L90.5078 33.6781H94.5849L103.367 57.9971H99.373L97.1521 51.4268ZM88.841 48.3932H96.1871L92.5625 37.7274H92.4609C92.4656 37.7274 88.841 48.3932 88.841 48.3932ZM122.33 49.132C122.33 54.6404 119.38 58.1818 114.928 58.1818C112.629 58.3019 110.464 57.0968 109.351 55.079H109.268V63.861H105.629V40.2669H109.152V43.2173H109.217C110.376 41.2134 112.546 40.0083 114.864 40.0822C119.366 40.0868 122.33 43.6421 122.33 49.132ZM118.59 49.132C118.59 45.5444 116.734 43.185 113.903 43.185C111.124 43.185 109.254 45.5952 109.254 49.1366C109.254 52.7104 111.124 55.1021 113.903 55.1021C116.734 55.1021 118.59 52.7565 118.59 49.132ZM141.842 49.132C141.842 54.6404 138.892 58.1818 134.441 58.1818C132.142 58.3019 129.976 57.0968 128.863 55.079H128.78V63.861H125.142V40.2669H128.665V43.2173H128.729C129.893 41.2134 132.058 40.0083 134.376 40.0822C138.878 40.0868 141.842 43.6421 141.842 49.132ZM138.102 49.132C138.102 45.5444 136.246 43.185 133.416 43.185C130.636 43.185 128.766 45.5952 128.766 49.1366C128.766 52.7104 130.636 55.1021 133.416 55.1021C136.246 55.1021 138.102 52.7565 138.102 49.132ZM154.738 51.2236C155.011 53.6338 157.352 55.2175 160.552 55.2175C163.617 55.2175 165.824 53.6338 165.824 51.4591C165.824 49.5706 164.495 48.444 161.341 47.6683L158.187 46.9111C153.723 45.8307 151.649 43.7437 151.649 40.3546C151.649 36.1575 155.306 33.2764 160.496 33.2764C165.635 33.2764 169.158 36.1575 169.278 40.3546H165.603C165.381 37.9259 163.377 36.4623 160.445 36.4623C157.513 36.4623 155.509 37.9444 155.509 40.1007C155.509 41.8229 156.793 42.8295 159.928 43.6052L162.606 44.2654C167.597 45.4428 169.666 47.4513 169.666 51.0066C169.666 55.5546 166.041 58.4081 160.279 58.4081C154.886 58.4081 151.243 55.6239 151.008 51.2282C151.012 51.2236 154.738 51.2236 154.738 51.2236ZM177.529 36.0744V40.2715H180.9V43.1527H177.529V52.9274C177.529 54.4465 178.203 55.1529 179.685 55.1529C180.087 55.1437 180.484 55.116 180.881 55.0698V57.9325C180.212 58.0571 179.538 58.1126 178.859 58.1033C175.271 58.1033 173.868 56.7551 173.868 53.3198V43.1573H171.287V40.2761H173.868V36.0744H177.529ZM182.848 49.132C182.848 43.5544 186.136 40.0499 191.256 40.0499C196.395 40.0499 199.669 43.5544 199.669 49.132C199.669 54.7281 196.414 58.2141 191.256 58.2141C186.103 58.2187 182.848 54.7281 182.848 49.132ZM195.961 49.132C195.961 45.3043 194.207 43.0465 191.256 43.0465C188.31 43.0465 186.556 45.3228 186.556 49.132C186.556 52.9736 188.31 55.2129 191.256 55.2129C194.207 55.2175 195.961 52.9782 195.961 49.132ZM202.67 40.2669H206.142V43.2819H206.225C206.71 41.3381 208.488 40.0037 210.487 40.0776C210.907 40.0776 211.327 40.1237 211.734 40.2115V43.6144C211.203 43.4528 210.653 43.3789 210.099 43.3928C209.028 43.3512 207.994 43.776 207.264 44.5609C206.535 45.3459 206.184 46.4078 206.308 47.4744V57.9879H202.665V40.2669H202.67ZM228.517 52.7889C228.028 56.0071 224.893 58.2141 220.885 58.2141C215.728 58.2141 212.528 54.7604 212.528 49.2151C212.528 43.6559 215.746 40.0453 220.733 40.0453C225.636 40.0453 228.721 43.4158 228.721 48.7903V50.037H216.199V50.2586C216.083 51.5791 216.536 52.8858 217.45 53.8462C218.364 54.8066 219.643 55.3284 220.968 55.2822C222.737 55.4484 224.399 54.4326 225.064 52.7889H228.517ZM216.212 47.4975H225.078C225.142 46.3109 224.713 45.1519 223.886 44.2977C223.06 43.4435 221.915 42.9726 220.728 42.9957C219.532 42.9864 218.383 43.4574 217.533 44.307C216.688 45.1519 216.208 46.3016 216.212 47.4975Z" fill="black"/>
<path d="M84.2835 27V14.0739H89.133C90.1205 14.0739 90.9111 14.2062 91.5048 14.4707C92.1044 14.7293 92.5717 15.132 92.9068 15.6787C93.2477 16.2195 93.4182 16.7867 93.4182 17.3804C93.4182 17.9329 93.2683 18.4532 92.9685 18.941C92.6687 19.4289 92.2161 19.8228 91.6106 20.1226C92.3924 20.3518 92.992 20.7427 93.4094 21.2952C93.8326 21.8478 94.0442 22.5003 94.0442 23.2527C94.0442 23.8581 93.9149 24.4224 93.6562 24.9456C93.4035 25.4629 93.089 25.8626 92.7128 26.1447C92.3366 26.4269 91.8634 26.6414 91.2932 26.7884C90.7289 26.9295 90.0353 27 89.2124 27H84.2835ZM85.9941 19.5053H88.7891C89.5474 19.5053 90.0911 19.4554 90.4203 19.3555C90.8553 19.2261 91.1815 19.0116 91.399 18.7118C91.6224 18.412 91.7341 18.0358 91.7341 17.5832C91.7341 17.1541 91.6312 16.7779 91.4255 16.4546C91.2197 16.1254 90.9258 15.902 90.5438 15.7845C90.1617 15.661 89.5063 15.5993 88.5775 15.5993H85.9941V19.5053ZM85.9941 25.4746H89.2124C89.7649 25.4746 90.1529 25.454 90.3762 25.4129C90.7701 25.3424 91.0992 25.2248 91.3638 25.0602C91.6283 24.8956 91.8458 24.6576 92.0162 24.346C92.1867 24.0286 92.2719 23.6641 92.2719 23.2527C92.2719 22.7707 92.1485 22.3533 91.9016 22.0006C91.6547 21.6421 91.3109 21.3922 90.87 21.2512C90.435 21.1042 89.8061 21.0307 88.9831 21.0307H85.9941V25.4746ZM102.306 25.8449C101.718 26.3446 101.151 26.6973 100.604 26.903C100.063 27.1087 99.4815 27.2116 98.8584 27.2116C97.8297 27.2116 97.0391 26.9618 96.4866 26.4621C95.934 25.9566 95.6578 25.313 95.6578 24.5312C95.6578 24.0727 95.7606 23.6553 95.9664 23.2791C96.178 22.897 96.4513 22.5914 96.7864 22.3621C97.1273 22.1329 97.5094 21.9595 97.9326 21.8419C98.2441 21.7596 98.7144 21.6803 99.3434 21.6039C100.625 21.451 101.568 21.2688 102.174 21.0572C102.18 20.8397 102.183 20.7016 102.183 20.6428C102.183 19.9962 102.033 19.5406 101.733 19.2761C101.327 18.9175 100.725 18.7382 99.9253 18.7382C99.1788 18.7382 98.6262 18.8705 98.2677 19.135C97.915 19.3937 97.6534 19.8551 97.4829 20.5193L95.9311 20.3077C96.0722 19.6435 96.3044 19.1086 96.6277 18.703C96.951 18.2915 97.4183 17.977 98.0296 17.7595C98.6409 17.5362 99.3492 17.4245 100.155 17.4245C100.954 17.4245 101.604 17.5185 102.103 17.7066C102.603 17.8947 102.97 18.1328 103.205 18.4208C103.44 18.703 103.605 19.0615 103.699 19.4965C103.752 19.7669 103.778 20.2548 103.778 20.9602V23.0763C103.778 24.5517 103.811 25.4864 103.875 25.8802C103.946 26.2682 104.081 26.6414 104.281 27H102.623C102.459 26.6708 102.353 26.2858 102.306 25.8449ZM102.174 22.3004C101.598 22.5355 100.734 22.7354 99.5814 22.9C98.929 22.994 98.4675 23.0998 98.1971 23.2174C97.9267 23.335 97.7181 23.5084 97.5711 23.7376C97.4241 23.961 97.3507 24.2108 97.3507 24.4871C97.3507 24.9103 97.5094 25.263 97.8268 25.5452C98.1501 25.8273 98.6203 25.9684 99.2376 25.9684C99.8489 25.9684 100.393 25.8361 100.869 25.5716C101.345 25.3012 101.695 24.9338 101.918 24.4695C102.088 24.1109 102.174 23.5819 102.174 22.8824V22.3004ZM106.256 15.8991V14.0739H107.843V15.8991H106.256ZM106.256 27V17.6361H107.843V27H106.256ZM109.21 27L112.631 22.1329L109.466 17.6361H111.449L112.887 19.8316C113.157 20.2489 113.375 20.5987 113.539 20.8808C113.798 20.4929 114.036 20.149 114.253 19.8492L115.832 17.6361H117.727L114.491 22.0447L117.974 27H116.026L114.103 24.0903L113.592 23.3056L111.132 27H109.21ZM125.407 25.8449C124.819 26.3446 124.252 26.6973 123.705 26.903C123.165 27.1087 122.583 27.2116 121.96 27.2116C120.931 27.2116 120.14 26.9618 119.588 26.4621C119.035 25.9566 118.759 25.313 118.759 24.5312C118.759 24.0727 118.862 23.6553 119.068 23.2791C119.279 22.897 119.552 22.5914 119.888 22.3621C120.228 22.1329 120.611 21.9595 121.034 21.8419C121.345 21.7596 121.816 21.6803 122.445 21.6039C123.726 21.451 124.669 21.2688 125.275 21.0572C125.281 20.8397 125.284 20.7016 125.284 20.6428C125.284 19.9962 125.134 19.5406 124.834 19.2761C124.428 18.9175 123.826 18.7382 123.026 18.7382C122.28 18.7382 121.727 18.8705 121.369 19.135C121.016 19.3937 120.755 19.8551 120.584 20.5193L119.032 20.3077C119.173 19.6435 119.406 19.1086 119.729 18.703C120.052 18.2915 120.519 17.977 121.131 17.7595C121.742 17.5362 122.45 17.4245 123.256 17.4245C124.055 17.4245 124.705 17.5185 125.204 17.7066C125.704 17.8947 126.071 18.1328 126.306 18.4208C126.542 18.703 126.706 19.0615 126.8 19.4965C126.853 19.7669 126.88 20.2548 126.88 20.9602V23.0763C126.88 24.5517 126.912 25.4864 126.977 25.8802C127.047 26.2682 127.182 26.6414 127.382 27H125.725C125.56 26.6708 125.454 26.2858 125.407 25.8449ZM125.275 22.3004C124.699 22.5355 123.835 22.7354 122.683 22.9C122.03 22.994 121.569 23.0998 121.298 23.2174C121.028 23.335 120.819 23.5084 120.672 23.7376C120.525 23.961 120.452 24.2108 120.452 24.4871C120.452 24.9103 120.611 25.263 120.928 25.5452C121.251 25.8273 121.722 25.9684 122.339 25.9684C122.95 25.9684 123.494 25.8361 123.97 25.5716C124.446 25.3012 124.796 24.9338 125.019 24.4695C125.19 24.1109 125.275 23.5819 125.275 22.8824V22.3004ZM129.331 27V17.6361H130.759V19.0557C131.124 18.3914 131.459 17.9535 131.764 17.7419C132.076 17.5303 132.417 17.4245 132.787 17.4245C133.322 17.4245 133.866 17.5949 134.418 17.9359L133.872 19.4084C133.484 19.1791 133.096 19.0645 132.708 19.0645C132.361 19.0645 132.049 19.1703 131.773 19.3819C131.497 19.5876 131.3 19.8757 131.182 20.246C131.006 20.8103 130.918 21.4275 130.918 22.0976V27H129.331ZM140.388 27V17.6361H141.816V18.9675C142.504 17.9388 143.497 17.4245 144.796 17.4245C145.361 17.4245 145.878 17.5273 146.348 17.7331C146.824 17.9329 147.18 18.1975 147.415 18.5266C147.65 18.8558 147.815 19.2467 147.909 19.6993C147.967 19.9932 147.997 20.5076 147.997 21.2423V27H146.41V21.3041C146.41 20.6575 146.348 20.1755 146.225 19.858C146.101 19.5347 145.881 19.279 145.563 19.0909C145.252 18.897 144.884 18.8 144.461 18.8C143.785 18.8 143.2 19.0145 142.707 19.4436C142.219 19.8727 141.975 20.6869 141.975 21.886V27H140.388ZM156.55 25.8449C155.962 26.3446 155.395 26.6973 154.848 26.903C154.307 27.1087 153.725 27.2116 153.102 27.2116C152.073 27.2116 151.283 26.9618 150.73 26.4621C150.178 25.9566 149.901 25.313 149.901 24.5312C149.901 24.0727 150.004 23.6553 150.21 23.2791C150.422 22.897 150.695 22.5914 151.03 22.3621C151.371 22.1329 151.753 21.9595 152.176 21.8419C152.488 21.7596 152.958 21.6803 153.587 21.6039C154.868 21.451 155.812 21.2688 156.417 21.0572C156.423 20.8397 156.426 20.7016 156.426 20.6428C156.426 19.9962 156.276 19.5406 155.976 19.2761C155.571 18.9175 154.968 18.7382 154.169 18.7382C153.422 18.7382 152.87 18.8705 152.511 19.135C152.159 19.3937 151.897 19.8551 151.727 20.5193L150.175 20.3077C150.316 19.6435 150.548 19.1086 150.871 18.703C151.195 18.2915 151.662 17.977 152.273 17.7595C152.885 17.5362 153.593 17.4245 154.398 17.4245C155.198 17.4245 155.847 17.5185 156.347 17.7066C156.846 17.8947 157.214 18.1328 157.449 18.4208C157.684 18.703 157.849 19.0615 157.943 19.4965C157.996 19.7669 158.022 20.2548 158.022 20.9602V23.0763C158.022 24.5517 158.054 25.4864 158.119 25.8802C158.19 26.2682 158.325 26.6414 158.525 27H156.867C156.702 26.6708 156.597 26.2858 156.55 25.8449ZM156.417 22.3004C155.841 22.5355 154.977 22.7354 153.825 22.9C153.173 22.994 152.711 23.0998 152.441 23.2174C152.17 23.335 151.962 23.5084 151.815 23.7376C151.668 23.961 151.594 24.2108 151.594 24.4871C151.594 24.9103 151.753 25.263 152.07 25.5452C152.394 25.8273 152.864 25.9684 153.481 25.9684C154.093 25.9684 154.636 25.8361 155.112 25.5716C155.589 25.3012 155.938 24.9338 156.162 24.4695C156.332 24.1109 156.417 23.5819 156.417 22.8824V22.3004Z" fill="black"/>
</svg>
