<svg width="24" height="24" viewBox="0 0 24 24" fill="none" xmlns="http://www.w3.org/2000/svg">
<g id="material-symbols:contact-emergency-outline-rounded" clip-path="url(#clip0_12347_2088)">
<path id="Vector" d="M2 21C1.45 21 0.979333 20.8043 0.588 20.413C0.196667 20.0217 0.000666667 19.5507 0 19V5C0 4.45 0.196 3.97933 0.588 3.588C0.98 3.19667 1.45067 3.00067 2 3H22C22.55 3 23.021 3.196 23.413 3.588C23.805 3.98 24.0007 4.45067 24 5V19C24 19.55 23.8043 20.021 23.413 20.413C23.0217 20.805 22.5507 21.0007 22 21H2ZM15.9 19H22V5H2V19H2.1C2.8 17.75 3.76667 16.771 5 16.063C6.23333 15.355 7.56667 15.0007 9 15C10.4333 14.9993 11.7667 15.3537 13 16.063C14.2333 16.7723 15.2 17.7513 15.9 19ZM9 14C9.83333 14 10.5417 13.7083 11.125 13.125C11.7083 12.5417 12 11.8333 12 11C12 10.1667 11.7083 9.45833 11.125 8.875C10.5417 8.29167 9.83333 8 9 8C8.16667 8 7.45833 8.29167 6.875 8.875C6.29167 9.45833 6 10.1667 6 11C6 11.8333 6.29167 12.5417 6.875 13.125C7.45833 13.7083 8.16667 14 9 14ZM4.55 19H13.45C12.8833 18.3667 12.2123 17.875 11.437 17.525C10.6617 17.175 9.84933 17 9 17C8.15067 17 7.34233 17.175 6.575 17.525C5.80767 17.875 5.13267 18.3667 4.55 19ZM9 12C8.71667 12 8.47933 11.904 8.288 11.712C8.09667 11.52 8.00067 11.2827 8 11C7.99933 10.7173 8.09533 10.48 8.288 10.288C8.48067 10.096 8.718 10 9 10C9.282 10 9.51967 10.096 9.713 10.288C9.90633 10.48 10.002 10.7173 10 11C9.998 11.2827 9.902 11.5203 9.712 11.713C9.522 11.9057 9.28467 12.0013 9 12ZM17.25 10.3V11.25C17.25 11.4667 17.321 11.646 17.463 11.788C17.605 11.93 17.784 12.0007 18 12C18.216 11.9993 18.3953 11.9283 18.538 11.787C18.6807 11.6457 18.7513 11.4667 18.75 11.25V10.3L19.575 10.775C19.7583 10.875 19.95 10.9 20.15 10.85C20.35 10.8 20.5 10.6833 20.6 10.5C20.7 10.3167 20.725 10.125 20.675 9.925C20.625 9.725 20.5083 9.575 20.325 9.475L19.5 9L20.325 8.525C20.5083 8.425 20.625 8.275 20.675 8.075C20.725 7.875 20.7 7.68333 20.6 7.5C20.5 7.31667 20.35 7.2 20.15 7.15C19.95 7.1 19.7583 7.125 19.575 7.225L18.75 7.7V6.75C18.75 6.53333 18.679 6.35433 18.537 6.213C18.395 6.07167 18.216 6.00067 18 6C17.784 5.99933 17.605 6.07033 17.463 6.213C17.321 6.35567 17.25 6.53467 17.25 6.75V7.7L16.425 7.225C16.2417 7.125 16.05 7.1 15.85 7.15C15.65 7.2 15.5 7.31667 15.4 7.5C15.3 7.68333 15.275 7.875 15.325 8.075C15.375 8.275 15.4917 8.425 15.675 8.525L16.5 9L15.675 9.475C15.4917 9.575 15.375 9.725 15.325 9.925C15.275 10.125 15.3 10.3167 15.4 10.5C15.5 10.6833 15.65 10.8 15.85 10.85C16.05 10.9 16.2417 10.875 16.425 10.775L17.25 10.3Z" fill="white"/>
</g>
<defs>
<clipPath id="clip0_12347_2088">
<rect width="24" height="24" fill="white"/>
</clipPath>
</defs>
</svg>
