<svg width="26" height="26" viewBox="0 0 26 26" fill="none" xmlns="http://www.w3.org/2000/svg">
<g id="Group">
<path id="Vector" d="M11.014 1.88771C11.264 1.60841 11.5702 1.38499 11.9125 1.23202C12.2548 1.07906 12.6255 1 13.0004 1C13.3753 1 13.746 1.07906 14.0882 1.23202C14.4305 1.38499 14.7367 1.60841 14.9868 1.88771L15.92 2.93025C16.1867 3.2282 16.517 3.46235 16.8865 3.61535C17.256 3.76836 17.6551 3.83629 18.0544 3.81414L19.4542 3.73681C19.8286 3.71617 20.2032 3.77474 20.5534 3.90869C20.9037 4.04263 21.2217 4.24895 21.4868 4.51417C21.7519 4.77938 21.9581 5.09753 22.0918 5.44783C22.2256 5.79813 22.284 6.17272 22.2632 6.54712L22.1859 7.94561C22.1639 8.34467 22.2319 8.74356 22.3849 9.11277C22.5379 9.48199 22.772 9.8121 23.0698 10.0787L24.1123 11.0119C24.3918 11.262 24.6154 11.5682 24.7685 11.9106C24.9216 12.253 25.0007 12.6239 25.0007 12.999C25.0007 13.374 24.9216 13.7449 24.7685 14.0873C24.6154 14.4297 24.3918 14.7359 24.1123 14.986L23.0698 15.9193C22.7718 16.186 22.5376 16.5163 22.3846 16.8858C22.2316 17.2552 22.1637 17.6544 22.1859 18.0536L22.2632 19.4535C22.2838 19.8279 22.2253 20.2024 22.0913 20.5527C21.9574 20.9029 21.751 21.221 21.4858 21.4861C21.2206 21.7511 20.9025 21.9573 20.5522 22.0911C20.2019 22.2249 19.8273 22.2833 19.4529 22.2624L18.0544 22.1851C17.6553 22.1632 17.2564 22.2312 16.8872 22.3842C16.518 22.5372 16.1879 22.7712 15.9213 23.069L14.9881 24.1115C14.738 24.3911 14.4318 24.6147 14.0894 24.7678C13.747 24.9209 13.3761 25 13.001 25C12.626 25 12.2551 24.9209 11.9127 24.7678C11.5703 24.6147 11.2641 24.3911 11.014 24.1115L10.0807 23.069C9.81403 22.771 9.48371 22.5369 9.11425 22.3839C8.74478 22.2309 8.34563 22.163 7.94635 22.1851L6.54653 22.2624C6.17212 22.2831 5.79756 22.2245 5.44732 22.0906C5.09708 21.9566 4.77903 21.7503 4.51395 21.4851C4.24886 21.2199 4.04269 20.9017 3.90891 20.5514C3.77513 20.2011 3.71674 19.8265 3.73756 19.4521L3.81488 18.0536C3.83683 17.6546 3.7688 17.2557 3.6158 16.8865C3.46281 16.5173 3.22877 16.1872 2.93099 15.9206L1.88846 14.9874C1.60894 14.7373 1.38532 14.431 1.23223 14.0886C1.07913 13.7462 1 13.3754 1 13.0003C1 12.6252 1.07913 12.2544 1.23223 11.912C1.38532 11.5696 1.60894 11.2633 1.88846 11.0132L2.93099 10.08C3.22895 9.81329 3.4631 9.48297 3.6161 9.1135C3.7691 8.74403 3.83704 8.34488 3.81488 7.94561L3.73756 6.54579C3.71711 6.17148 3.77582 5.79707 3.90986 5.44699C4.04389 5.09691 4.25024 4.77903 4.51543 4.51409C4.78062 4.24915 5.0987 4.0431 5.44891 3.9094C5.79912 3.7757 6.17358 3.71734 6.54786 3.73814L7.94635 3.81547C8.34541 3.83742 8.7443 3.76939 9.11352 3.61639C9.48274 3.4634 9.81284 3.22936 10.0794 2.93158L11.014 1.88771Z" stroke="white" stroke-width="1.5"/>
<path id="Vector_2" d="M9.66797 9.66699H9.6813V9.68032H9.66797V9.66699ZM16.3338 16.3328H16.3471V16.3461H16.3338V16.3328Z" stroke="white" stroke-width="2.25" stroke-linejoin="round"/>
<path id="Vector (Stroke)" fill-rule="evenodd" clip-rule="evenodd" d="M17.5293 8.46967C17.8222 8.76256 17.8222 9.23744 17.5293 9.53033L9.53033 17.5293C9.23744 17.8222 8.76256 17.8222 8.46967 17.5293C8.17678 17.2364 8.17678 16.7615 8.46967 16.4686L16.4686 8.46967C16.7615 8.17678 17.2364 8.17678 17.5293 8.46967Z" fill="white"/>
</g>
</svg>
