<svg width="24" height="24" viewBox="0 0 24 24" fill="none" xmlns="http://www.w3.org/2000/svg">
<g id="maki:doctor">
<path id="Vector" d="M8.79922 11.1996C7.73835 11.1996 6.72094 10.7782 5.97079 10.028C5.22065 9.27789 4.79922 8.26048 4.79922 7.19961V3.99961C4.79922 3.78744 4.8835 3.58395 5.03353 3.43392C5.18356 3.2839 5.38705 3.19961 5.59922 3.19961H6.39922C6.61139 3.19961 6.81487 3.11532 6.9649 2.96529C7.11493 2.81527 7.19922 2.61178 7.19922 2.39961C7.19922 2.18744 7.11493 1.98395 6.9649 1.83392C6.81487 1.68389 6.61139 1.59961 6.39922 1.59961H5.59922C4.9627 1.59961 4.35225 1.85247 3.90216 2.30255C3.45208 2.75264 3.19922 3.36309 3.19922 3.99961V7.19961C3.20025 8.1034 3.42064 8.99343 3.84146 9.79327C4.26228 10.5931 4.87096 11.2789 5.61522 11.7916C6.331 12.4214 6.91139 13.1901 7.32119 14.0509C7.731 14.9118 7.96167 15.8469 7.99922 16.7996C7.99922 18.2848 8.58922 19.7092 9.63942 20.7594C10.6896 21.8096 12.114 22.3996 13.5992 22.3996C15.0844 22.3996 16.5088 21.8096 17.559 20.7594C18.6092 19.7092 19.1992 18.2848 19.1992 16.7996V15.8876C19.9533 15.6929 20.6106 15.2298 21.0477 14.5852C21.4848 13.9406 21.6719 13.1587 21.5737 12.386C21.4756 11.6134 21.099 10.903 20.5146 10.3882C19.9302 9.87328 19.1781 9.58922 18.3992 9.58922C17.6204 9.58922 16.8682 9.87328 16.2838 10.3882C15.6994 10.903 15.3229 11.6134 15.2247 12.386C15.1266 13.1587 15.3136 13.9406 15.7507 14.5852C16.1879 15.2298 16.8451 15.6929 17.5992 15.8876V16.7996C17.5992 17.8605 17.1778 18.8779 16.4276 19.628C15.6775 20.3782 14.6601 20.7996 13.5992 20.7996C12.5384 20.7996 11.5209 20.3782 10.7708 19.628C10.0206 18.8779 9.59922 17.8605 9.59922 16.7996C9.63879 15.8457 9.87196 14.9099 10.2845 14.049C10.6971 13.188 11.2805 12.42 11.9992 11.7916C12.7405 11.2771 13.3461 10.5906 13.7641 9.79083C14.182 8.9911 14.4 8.10198 14.3992 7.19961V3.99961C14.3992 3.36309 14.1464 2.75264 13.6963 2.30255C13.2462 1.85247 12.6357 1.59961 11.9992 1.59961H11.1992C10.987 1.59961 10.7836 1.68389 10.6335 1.83392C10.4835 1.98395 10.3992 2.18744 10.3992 2.39961C10.3992 2.61178 10.4835 2.81527 10.6335 2.96529C10.7836 3.11532 10.987 3.19961 11.1992 3.19961H11.9992C12.2114 3.19961 12.4149 3.2839 12.5649 3.43392C12.7149 3.58395 12.7992 3.78744 12.7992 3.99961V7.19961C12.7992 7.7249 12.6958 8.24504 12.4947 8.73034C12.2937 9.21565 11.9991 9.6566 11.6276 10.028C11.2562 10.3995 10.8153 10.6941 10.33 10.8951C9.84465 11.0961 9.32451 11.1996 8.79922 11.1996ZM18.3992 14.3996C17.9749 14.3996 17.5679 14.231 17.2678 13.931C16.9678 13.6309 16.7992 13.224 16.7992 12.7996C16.7992 12.3753 16.9678 11.9683 17.2678 11.6682C17.5679 11.3682 17.9749 11.1996 18.3992 11.1996C18.8236 11.1996 19.2305 11.3682 19.5306 11.6682C19.8306 11.9683 19.9992 12.3753 19.9992 12.7996C19.9992 13.224 19.8306 13.6309 19.5306 13.931C19.2305 14.231 18.8236 14.3996 18.3992 14.3996Z" fill="white"/>
</g>
</svg>
