<svg width="262" height="75" viewBox="0 0 262 75" fill="none" xmlns="http://www.w3.org/2000/svg">
<path fill-rule="evenodd" clip-rule="evenodd" d="M251.37 74.9102H9.66983C4.35393 74.9102 0 70.6978 0 65.5448V9.36543C0 4.21687 4.34937 0 9.66983 0H251.37C256.686 0 261.04 4.21245 261.04 9.36543V65.5492C261.04 70.6978 256.691 74.9102 251.37 74.9102Z" fill="white"/>
<path d="M105.52 57.6677C109.936 57.6677 113.517 54.1014 113.517 49.702C113.517 45.3027 109.936 41.7363 105.52 41.7363C101.104 41.7363 97.5234 45.3027 97.5234 49.702C97.5234 54.1014 101.104 57.6677 105.52 57.6677Z" fill="black"/>
<path d="M122.961 57.6677C127.378 57.6677 130.958 54.1014 130.958 49.702C130.958 45.3027 127.378 41.7363 122.961 41.7363C118.545 41.7363 114.965 45.3027 114.965 49.702C114.965 54.1014 118.545 57.6677 122.961 57.6677Z" fill="black"/>
<path fill-rule="evenodd" clip-rule="evenodd" d="M41.7776 37.4521L19.0947 14.8135C18.8342 15.3389 18.6797 15.9836 18.6797 16.7652V58.1479C18.6797 58.9383 18.8386 59.5963 19.108 60.1217L41.7776 37.4521Z" fill="#00D2FF"/>
<path fill-rule="evenodd" clip-rule="evenodd" d="M19.1602 14.6683C19.169 14.6462 19.1822 14.6285 19.1955 14.6064C19.1822 14.6285 19.1734 14.6506 19.1602 14.6683Z" fill="white"/>
<path fill-rule="evenodd" clip-rule="evenodd" d="M43.0884 36.1412L50.0738 29.1557L23.4391 14.0235C22.684 13.5908 21.9731 13.3877 21.3373 13.3877C21.0149 13.3877 20.7191 13.4451 20.4453 13.5466L43.0884 36.1412Z" fill="#00F076"/>
<path fill-rule="evenodd" clip-rule="evenodd" d="M59.926 34.755L51.7616 30.1143L44.4141 37.4618L51.7616 44.7916L59.926 40.1509C62.54 38.6716 62.54 36.2387 59.926 34.755Z" fill="#FFD200"/>
<path fill-rule="evenodd" clip-rule="evenodd" d="M43.1062 38.7773L20.5117 61.3807C21.3198 61.6544 22.3309 61.522 23.4392 60.895L50.0917 45.7451L43.1062 38.7773Z" fill="#FB3746"/>
<path fill-rule="evenodd" clip-rule="evenodd" d="M19.1406 60.1924C19.2466 60.3867 19.3658 60.5633 19.5027 60.7134C19.3658 60.5545 19.2378 60.3867 19.1406 60.1924Z" fill="white"/>
<path d="M199.122 33.7754H195.629V57.1868H199.122V33.7754Z" fill="black"/>
<path fill-rule="evenodd" clip-rule="evenodd" d="M227.101 42.209L223.096 52.3604H222.972L218.817 42.209H215.051L221.286 56.3918L217.731 64.2869H221.374L230.982 42.209H227.101Z" fill="black"/>
<path fill-rule="evenodd" clip-rule="evenodd" d="M150.105 57.1868H153.607V33.7754H150.105V57.1868Z" fill="black"/>
<path fill-rule="evenodd" clip-rule="evenodd" d="M84.7756 44.1826V47.5605H92.865C92.6221 49.4636 91.9863 50.8501 91.0237 51.8127C89.8447 52.9916 88.0034 54.2854 84.7756 54.2854C79.7949 54.2854 75.9047 50.2716 75.9047 45.2953C75.9047 40.3189 79.7993 36.3052 84.7756 36.3052C87.4603 36.3052 89.4208 37.3605 90.8691 38.7161L93.2535 36.3317C91.2312 34.4021 88.5465 32.9229 84.7756 32.9229C77.958 32.9229 72.2266 38.4776 72.2266 45.2953C72.2266 52.1129 77.958 57.6633 84.7756 57.6633C88.4582 57.6633 91.2312 56.4579 93.4037 54.1927C95.6335 51.9584 96.3312 48.8233 96.3312 46.2888C96.3312 45.5072 96.2738 44.7831 96.1501 44.1781L84.7756 44.1826Z" fill="black"/>
<path d="M105.518 44.876C103.108 44.876 101.023 46.8365 101.023 49.7022C101.023 52.537 103.103 54.5328 105.518 54.5328C107.934 54.5328 110.014 52.5414 110.014 49.7022C110.014 46.8365 107.934 44.876 105.518 44.876Z" fill="white"/>
<path d="M127.455 49.7022C127.455 46.8365 125.375 44.876 122.96 44.876C120.549 44.876 118.465 46.8365 118.465 49.7022C118.465 52.537 120.545 54.5328 122.96 54.5328C125.375 54.5328 127.455 52.537 127.455 49.7022Z" fill="white"/>
<path fill-rule="evenodd" clip-rule="evenodd" d="M144.247 43.5153H144.366V42.2171H147.687V56.5192C147.687 62.4007 144.22 64.8161 140.114 64.8161C136.25 64.8161 133.928 62.2197 133.053 60.1091L136.1 58.8418C136.643 60.14 137.972 61.6766 140.114 61.6766C142.737 61.6766 144.366 60.0472 144.366 57.0005V55.8569H144.247C143.465 56.8195 141.955 57.6628 140.056 57.6628C136.073 57.6628 132.422 54.1922 132.422 49.728C132.422 45.233 136.073 41.7314 140.056 41.7314C141.951 41.7314 143.461 42.5792 144.247 43.5153ZM135.924 49.7369C135.924 52.5099 137.946 54.5322 140.357 54.5322C142.737 54.5278 144.609 52.5099 144.613 49.7369C144.613 46.933 142.742 44.8797 140.361 44.8797C137.946 44.8797 135.924 46.9286 135.924 49.7369Z" fill="black"/>
<path fill-rule="evenodd" clip-rule="evenodd" d="M177.648 33.7754H186.02C189.893 33.7754 193.699 36.5793 193.699 41.0434C193.699 45.512 189.893 48.3159 186.02 48.3159H181.141V57.1868H177.648V33.7754ZM181.136 45.0572H186.108C188.718 45.0572 190.202 42.8582 190.206 41.0434C190.206 39.1977 188.722 37.0341 186.108 37.0341H181.136V45.0572Z" fill="black"/>
<path fill-rule="evenodd" clip-rule="evenodd" d="M162.808 41.7363C166.941 41.7363 168.963 45.0259 169.626 46.8054L169.992 47.7062L159.342 52.1129C160.154 53.7114 161.421 54.5283 163.201 54.5283C164.985 54.5283 166.217 53.654 167.126 52.3249L169.842 54.1353C168.963 55.4335 166.852 57.6677 163.201 57.6677C158.675 57.6677 155.297 54.1662 155.297 49.702C155.297 44.9685 158.706 41.7363 162.808 41.7363ZM162.931 44.8184C161.148 44.8184 158.675 46.3859 158.763 49.4636L165.885 46.5096C165.497 45.5161 164.318 44.8184 162.931 44.8184Z" fill="black"/>
<path fill-rule="evenodd" clip-rule="evenodd" d="M201.471 45.2817C202.557 42.809 205.175 41.6963 207.706 41.6963C211.711 41.6963 214.815 44.0145 214.81 48.1695V57.1464H211.437V55.3404H211.317C210.505 56.5768 209.207 57.6321 206.862 57.6321C203.789 57.6321 201.047 55.6142 201.047 52.4791C201.047 49.0482 204.447 47.2114 207.794 47.2114C209.45 47.2114 210.801 47.75 211.437 48.1121V47.8693C211.406 45.9441 209.569 44.8578 207.763 44.8578C206.469 44.8578 205.233 45.2817 204.571 46.5755L201.471 45.2817ZM204.54 52.5409C204.54 53.9539 206.138 54.528 207.282 54.528C209.3 54.528 211.167 52.9913 211.437 50.8233C210.505 50.3729 209.777 50.0417 208.244 50.0417C206.527 50.0417 204.54 50.735 204.54 52.5409Z" fill="black"/>
<path d="M75.2886 25.1211V14.5786H78.9202C79.74 14.5786 80.3657 14.6289 80.7972 14.7296C81.4012 14.8686 81.9166 15.1203 82.3433 15.4847C82.8994 15.9545 83.3141 16.5562 83.5874 17.2897C83.8655 18.0184 84.0045 18.8526 84.0045 19.7923C84.0045 20.5929 83.911 21.3025 83.724 21.9209C83.5371 22.5394 83.2974 23.0524 83.0049 23.4599C82.7125 23.8626 82.3912 24.1814 82.0413 24.4163C81.6961 24.6465 81.2766 24.8215 80.7828 24.9413C80.2938 25.0612 79.7304 25.1211 79.0928 25.1211H75.2886ZM76.6837 23.877H78.9346C79.6298 23.877 80.1739 23.8123 80.567 23.6828C80.965 23.5534 81.2814 23.3712 81.5163 23.1363C81.8471 22.8055 82.1036 22.362 82.2858 21.8059C82.4728 21.2449 82.5662 20.5666 82.5662 19.7707C82.5662 18.668 82.3841 17.8219 82.0197 17.2322C81.6601 16.6377 81.2215 16.2398 80.7037 16.0384C80.3297 15.8946 79.728 15.8227 78.8986 15.8227H76.6837V23.877ZM86.1691 25.1211V14.5786H87.5642V25.1211H86.1691ZM89.5562 21.734L90.8723 21.6189C90.9346 22.1463 91.0784 22.5801 91.3037 22.9205C91.5339 23.2561 91.8886 23.5294 92.3681 23.7404C92.8475 23.9465 93.3868 24.0496 93.9861 24.0496C94.5183 24.0496 94.9881 23.9705 95.3956 23.8123C95.8031 23.6541 96.1052 23.4383 96.3017 23.165C96.5031 22.887 96.6038 22.5849 96.6038 22.2589C96.6038 21.9281 96.5079 21.6405 96.3161 21.396C96.1244 21.1467 95.8079 20.9381 95.3669 20.7703C95.084 20.6601 94.4584 20.4899 93.4899 20.2597C92.5215 20.0248 91.8431 19.8043 91.4548 19.5981C90.9514 19.3344 90.575 19.0084 90.3257 18.6201C90.0812 18.227 89.959 17.7883 89.959 17.3041C89.959 16.7719 90.11 16.2757 90.412 15.8155C90.7141 15.3504 91.1551 14.9981 91.7352 14.7583C92.3153 14.5186 92.9602 14.3988 93.6697 14.3988C94.4512 14.3988 95.1391 14.5258 95.7336 14.7799C96.3329 15.0292 96.7932 15.3984 97.1144 15.8874C97.4356 16.3764 97.6082 16.9301 97.6321 17.5486L96.2946 17.6493C96.2226 16.9829 95.9781 16.4795 95.561 16.1391C95.1487 15.7987 94.5375 15.6285 93.7272 15.6285C92.8834 15.6285 92.2674 15.7843 91.8791 16.0959C91.4955 16.4028 91.3037 16.7743 91.3037 17.2106C91.3037 17.5893 91.4404 17.901 91.7137 18.1455C91.9821 18.39 92.6821 18.6417 93.8135 18.9006C94.9498 19.1547 95.7288 19.3776 96.1507 19.5694C96.7644 19.8522 97.2174 20.2118 97.5099 20.6481C97.8023 21.0795 97.9486 21.5781 97.9486 22.1439C97.9486 22.7048 97.788 23.2346 97.4667 23.7332C97.1455 24.227 96.6829 24.6129 96.0788 24.891C95.4795 25.1642 94.8035 25.3009 94.0508 25.3009C93.0968 25.3009 92.2962 25.1618 91.6489 24.8838C91.0065 24.6057 90.5007 24.1886 90.1316 23.6325C89.7672 23.0716 89.5754 22.4387 89.5562 21.734ZM99.8543 25.1211V14.5786H103.831C104.531 14.5786 105.066 14.6121 105.435 14.6792C105.953 14.7655 106.386 14.9309 106.736 15.1754C107.086 15.4152 107.367 15.7531 107.578 16.1894C107.794 16.6257 107.901 17.1051 107.901 17.6277C107.901 18.5242 107.616 19.2841 107.046 19.9074C106.475 20.5258 105.444 20.835 103.953 20.835H101.249V25.1211H99.8543ZM101.249 19.5909H103.975C104.876 19.5909 105.516 19.4231 105.895 19.0875C106.274 18.7519 106.463 18.2797 106.463 17.6708C106.463 17.2298 106.35 16.8534 106.125 16.5418C105.905 16.2254 105.612 16.0168 105.248 15.9161C105.013 15.8538 104.579 15.8227 103.946 15.8227H101.249V19.5909ZM109.253 19.9865C109.253 18.2366 109.723 16.8678 110.663 15.8802C111.603 14.8878 112.816 14.3916 114.302 14.3916C115.275 14.3916 116.152 14.6241 116.934 15.0891C117.715 15.5542 118.31 16.2038 118.717 17.038C119.13 17.8674 119.336 18.8095 119.336 19.8642C119.336 20.9333 119.12 21.8898 118.688 22.7336C118.257 23.5773 117.646 24.2174 116.855 24.6537C116.064 25.0851 115.21 25.3009 114.295 25.3009C113.302 25.3009 112.415 25.0612 111.634 24.5817C110.852 24.1023 110.26 23.4479 109.857 22.6185C109.455 21.7891 109.253 20.9117 109.253 19.9865ZM110.692 20.008C110.692 21.2785 111.032 22.2805 111.713 23.014C112.398 23.7427 113.257 24.1071 114.287 24.1071C115.337 24.1071 116.2 23.738 116.876 22.9996C117.557 22.2613 117.897 21.2138 117.897 19.857C117.897 18.9988 117.751 18.2509 117.459 17.6133C117.171 16.9709 116.747 16.4747 116.186 16.1247C115.63 15.7699 115.004 15.5925 114.309 15.5925C113.321 15.5925 112.47 15.9329 111.756 16.6137C111.046 17.2897 110.692 18.4211 110.692 20.008ZM121.126 25.1211V14.5786H122.557L128.095 22.8558V14.5786H129.432V25.1211H128.001L122.464 16.8366V25.1211H121.126ZM132.021 25.1211V14.5786H133.416V25.1211H132.021ZM131.662 13.9313L132.618 11.9178H134.315L132.733 13.9313H131.662ZM138.896 25.1211L134.811 14.5786H136.322L139.062 22.2374C139.282 22.851 139.467 23.4263 139.615 23.9633C139.778 23.388 139.968 22.8127 140.183 22.2374L143.031 14.5786H144.455L140.327 25.1211H138.896ZM145.735 25.1211V14.5786H153.358V15.8227H147.13V19.0516H152.962V20.2885H147.13V23.877H153.603V25.1211H145.735ZM155.472 25.1211V14.5786H156.867V23.877H162.06V25.1211H155.472ZM167.266 25.1211V14.5786H168.697L174.235 22.8558V14.5786H175.572V25.1211H174.141L168.604 16.8366V25.1211H167.266ZM177.499 19.9865C177.499 18.2366 177.969 16.8678 178.909 15.8802C179.849 14.8878 181.062 14.3916 182.548 14.3916C183.521 14.3916 184.398 14.6241 185.18 15.0891C185.961 15.5542 186.556 16.2038 186.963 17.038C187.376 17.8674 187.582 18.8095 187.582 19.8642C187.582 20.9333 187.366 21.8898 186.934 22.7336C186.503 23.5773 185.892 24.2174 185.101 24.6537C184.31 25.0851 183.456 25.3009 182.541 25.3009C181.548 25.3009 180.661 25.0612 179.88 24.5817C179.098 24.1023 178.506 23.4479 178.103 22.6185C177.701 21.7891 177.499 20.9117 177.499 19.9865ZM178.938 20.008C178.938 21.2785 179.278 22.2805 179.959 23.014C180.644 23.7427 181.503 24.1071 182.533 24.1071C183.583 24.1071 184.446 23.738 185.122 22.9996C185.803 22.2613 186.143 21.2138 186.143 19.857C186.143 18.9988 185.997 18.2509 185.705 17.6133C185.417 16.9709 184.993 16.4747 184.432 16.1247C183.876 15.7699 183.25 15.5925 182.555 15.5925C181.567 15.5925 180.716 15.9329 180.002 16.6137C179.292 17.2897 178.938 18.4211 178.938 20.008Z" fill="black"/>
</svg>
