<svg width="209" height="61" viewBox="0 0 209 61" fill="none" xmlns="http://www.w3.org/2000/svg">
<path fill-rule="evenodd" clip-rule="evenodd" d="M200.882 60.2226H7.72764C3.47944 60.2226 0 56.8563 0 52.7383V7.84253C0 3.72806 3.4758 0.358154 7.72764 0.358154H200.882C205.131 0.358154 208.61 3.72454 208.61 7.84253V52.7418C208.61 56.8563 205.134 60.2226 200.882 60.2226Z" fill="white"/>
<path d="M84.326 46.4431C87.8554 46.4431 90.7165 43.5931 90.7165 40.0773C90.7165 36.5616 87.8554 33.7115 84.326 33.7115C80.7967 33.7115 77.9355 36.5616 77.9355 40.0773C77.9355 43.5931 80.7967 46.4431 84.326 46.4431Z" fill="black"/>
<path d="M98.2635 46.443C101.793 46.443 104.654 43.5929 104.654 40.0772C104.654 36.5615 101.793 33.7114 98.2635 33.7114C94.7342 33.7114 91.873 36.5615 91.873 40.0772C91.873 43.5929 94.7342 46.443 98.2635 46.443Z" fill="black"/>
<path fill-rule="evenodd" clip-rule="evenodd" d="M33.3864 30.2887L15.2594 12.197C15.0512 12.6169 14.9277 13.1321 14.9277 13.7567V46.8277C14.9277 47.4594 15.0548 47.9852 15.27 48.4051L33.3864 30.2887Z" fill="#00D2FF"/>
<path fill-rule="evenodd" clip-rule="evenodd" d="M15.3125 12.0804C15.3196 12.0628 15.3301 12.0486 15.3407 12.031C15.3301 12.0486 15.3231 12.0663 15.3125 12.0804Z" fill="white"/>
<path fill-rule="evenodd" clip-rule="evenodd" d="M34.435 29.2407L40.0175 23.6583L18.7323 11.5654C18.1289 11.2196 17.5608 11.0573 17.0526 11.0573C16.795 11.0573 16.5586 11.1031 16.3398 11.1843L34.435 29.2407Z" fill="#00F076"/>
<path fill-rule="evenodd" clip-rule="evenodd" d="M47.8885 28.1326L41.364 24.424L35.4922 30.2957L41.364 36.1534L47.8885 32.4447C49.9775 31.2626 49.9775 29.3183 47.8885 28.1326Z" fill="#FFD200"/>
<path fill-rule="evenodd" clip-rule="evenodd" d="M34.449 31.3474L16.3926 49.4109C17.0383 49.6296 17.8464 49.5238 18.7321 49.0227L40.0314 36.9157L34.449 31.3474Z" fill="#FB3746"/>
<path fill-rule="evenodd" clip-rule="evenodd" d="M15.2949 48.4615C15.3796 48.6168 15.4749 48.758 15.5843 48.8779C15.4749 48.7509 15.3726 48.6168 15.2949 48.4615Z" fill="white"/>
<path d="M159.127 27.3494H156.336V46.0586H159.127V27.3494Z" fill="black"/>
<path fill-rule="evenodd" clip-rule="evenodd" d="M181.487 34.0891L178.287 42.2016H178.188L174.867 34.0891H171.857L176.84 45.4233L173.999 51.7326H176.911L184.589 34.0891H181.487Z" fill="black"/>
<path fill-rule="evenodd" clip-rule="evenodd" d="M119.955 46.0586H122.753V27.3494H119.955V46.0586Z" fill="black"/>
<path fill-rule="evenodd" clip-rule="evenodd" d="M67.7473 35.6664V38.3659H74.2119C74.0178 39.8867 73.5097 40.9948 72.7404 41.764C71.7983 42.7062 70.3268 43.7401 67.7473 43.7401C63.7669 43.7401 60.6582 40.5325 60.6582 36.5556C60.6582 32.5788 63.7705 29.3712 67.7473 29.3712C69.8928 29.3712 71.4595 30.2146 72.6169 31.2979L74.5224 29.3924C72.9063 27.8503 70.7608 26.6682 67.7473 26.6682C62.299 26.6682 57.7188 31.1073 57.7188 36.5556C57.7188 42.004 62.299 46.4395 67.7473 46.4395C70.6903 46.4395 72.9063 45.4762 74.6424 43.666C76.4244 41.8805 76.982 39.3751 76.982 37.3496C76.982 36.725 76.9361 36.1463 76.8373 35.6629L67.7473 35.6664Z" fill="black"/>
<path d="M84.3246 36.2206C82.398 36.2206 80.7324 37.7873 80.7324 40.0775C80.7324 42.3429 82.3944 43.9379 84.3246 43.9379C86.2548 43.9379 87.9169 42.3464 87.9169 40.0775C87.9169 37.7873 86.2548 36.2206 84.3246 36.2206Z" fill="white"/>
<path d="M101.854 40.0775C101.854 37.7873 100.192 36.2206 98.2621 36.2206C96.3355 36.2206 94.6699 37.7873 94.6699 40.0775C94.6699 42.3429 96.3319 43.9379 98.2621 43.9379C100.192 43.9379 101.854 42.3429 101.854 40.0775Z" fill="white"/>
<path fill-rule="evenodd" clip-rule="evenodd" d="M115.274 35.1336H115.369V34.0962H118.023V45.5256C118.023 50.2259 115.253 52.1561 111.971 52.1561C108.884 52.1561 107.028 50.0812 106.329 48.3945L108.764 47.3817C109.198 48.4192 110.26 49.6472 111.971 49.6472C114.067 49.6472 115.369 48.3451 115.369 45.9103V44.9963H115.274C114.649 45.7656 113.443 46.4396 111.925 46.4396C108.742 46.4396 105.824 43.666 105.824 40.0985C105.824 36.5063 108.742 33.708 111.925 33.708C113.439 33.708 114.646 34.3855 115.274 35.1336ZM108.623 40.1055C108.623 42.3216 110.239 43.9377 112.166 43.9377C114.067 43.9342 115.564 42.3216 115.567 40.1055C115.567 37.8648 114.071 36.224 112.169 36.224C110.239 36.224 108.623 37.8613 108.623 40.1055Z" fill="black"/>
<path fill-rule="evenodd" clip-rule="evenodd" d="M141.967 27.3496H148.657C151.752 27.3496 154.794 29.5903 154.794 33.1579C154.794 36.7289 151.752 38.9696 148.657 38.9696H144.758V46.0588H141.967V27.3496ZM144.754 36.3655H148.728C150.813 36.3655 151.999 34.6082 152.002 33.1579C152.002 31.6829 150.817 29.9538 148.728 29.9538H144.754V36.3655Z" fill="black"/>
<path fill-rule="evenodd" clip-rule="evenodd" d="M130.106 33.7114C133.409 33.7114 135.025 36.3403 135.554 37.7624L135.847 38.4822L127.336 42.0039C127.985 43.2813 128.998 43.9341 130.42 43.9341C131.846 43.9341 132.83 43.2354 133.557 42.1733L135.727 43.62C135.025 44.6575 133.338 46.443 130.42 46.443C126.803 46.443 124.104 43.6447 124.104 40.0772C124.104 36.2944 126.828 33.7114 130.106 33.7114ZM130.205 36.1745C128.779 36.1745 126.803 37.4272 126.873 39.8867L132.565 37.526C132.255 36.732 131.313 36.1745 130.205 36.1745Z" fill="black"/>
<path fill-rule="evenodd" clip-rule="evenodd" d="M161.003 36.5452C161.871 34.5692 163.963 33.6799 165.985 33.6799C169.186 33.6799 171.666 35.5325 171.663 38.853V46.0269H168.967V44.5836H168.872C168.223 45.5717 167.185 46.415 165.311 46.415C162.855 46.415 160.664 44.8024 160.664 42.297C160.664 39.5552 163.381 38.0873 166.056 38.0873C167.379 38.0873 168.459 38.5178 168.967 38.8071V38.6131C168.942 37.0745 167.474 36.2065 166.031 36.2065C164.997 36.2065 164.009 36.5452 163.48 37.5792L161.003 36.5452ZM163.455 42.3464C163.455 43.4756 164.733 43.9343 165.647 43.9343C167.259 43.9343 168.752 42.7064 168.967 40.9738C168.223 40.6138 167.64 40.3492 166.416 40.3492C165.043 40.3492 163.455 40.9032 163.455 42.3464Z" fill="black"/>
<path d="M60.1639 20.2456V11.8205H63.0661C63.7213 11.8205 64.2212 11.8608 64.5661 11.9412C65.0488 12.0523 65.4607 12.2535 65.8017 12.5447C66.2461 12.9201 66.5775 13.401 66.7959 13.9872C67.0181 14.5695 67.1292 15.2362 67.1292 15.9871C67.1292 16.6269 67.0545 17.194 66.9051 17.6882C66.7557 18.1824 66.5641 18.5924 66.3304 18.9181C66.0967 19.2399 65.84 19.4947 65.5603 19.6824C65.2844 19.8663 64.9492 20.0061 64.5546 20.1019C64.1638 20.1977 63.7136 20.2456 63.204 20.2456H60.1639ZM61.2788 19.2514H63.0776C63.6331 19.2514 64.068 19.1997 64.3822 19.0962C64.7002 18.9928 64.953 18.8472 65.1408 18.6594C65.4051 18.3951 65.6101 18.0407 65.7557 17.5963C65.9051 17.148 65.9798 16.6059 65.9798 15.9699C65.9798 15.0887 65.8342 14.4124 65.543 13.9412C65.2557 13.4661 64.9051 13.1481 64.4914 12.9872C64.1925 12.8722 63.7117 12.8148 63.0489 12.8148H61.2788V19.2514ZM68.8591 20.2456V11.8205H69.974V20.2456H68.8591ZM71.5659 17.5388L72.6176 17.4468C72.6674 17.8683 72.7823 18.215 72.9624 18.487C73.1463 18.7552 73.4298 18.9736 73.8129 19.1422C74.1961 19.3069 74.6271 19.3893 75.106 19.3893C75.5313 19.3893 75.9068 19.3261 76.2324 19.1997C76.5581 19.0732 76.7995 18.9008 76.9565 18.6824C77.1175 18.4602 77.1979 18.2188 77.1979 17.9583C77.1979 17.6939 77.1213 17.4641 76.968 17.2687C76.8148 17.0694 76.5619 16.9028 76.2094 16.7687C75.9834 16.6806 75.4834 16.5446 74.7095 16.3607C73.9355 16.1729 73.3934 15.9967 73.0831 15.8319C72.6808 15.6212 72.38 15.3607 72.1808 15.0503C71.9854 14.7362 71.8877 14.3856 71.8877 13.9986C71.8877 13.5734 72.0084 13.1768 72.2498 12.809C72.4911 12.4374 72.8436 12.1558 73.3072 11.9642C73.7708 11.7726 74.2861 11.6769 74.8531 11.6769C75.4777 11.6769 76.0274 11.7784 76.5025 11.9815C76.9814 12.1807 77.3492 12.4757 77.6059 12.8665C77.8626 13.2573 78.0006 13.6998 78.0197 14.194L76.9508 14.2745C76.8933 13.7419 76.6979 13.3397 76.3646 13.0676C76.0351 12.7956 75.5466 12.6596 74.8991 12.6596C74.2248 12.6596 73.7325 12.7841 73.4222 13.0332C73.1156 13.2784 72.9624 13.5753 72.9624 13.9239C72.9624 14.2266 73.0716 14.4756 73.29 14.671C73.5045 14.8664 74.0639 15.0676 74.9681 15.2745C75.8761 15.4775 76.4987 15.6557 76.8359 15.8089C77.3263 16.035 77.6883 16.3223 77.922 16.671C78.1557 17.0158 78.2726 17.4143 78.2726 17.8664C78.2726 18.3146 78.1442 18.738 77.8875 19.1364C77.6309 19.5311 77.2611 19.8395 76.7784 20.0617C76.2995 20.2801 75.7593 20.3893 75.1577 20.3893C74.3953 20.3893 73.7555 20.2782 73.2382 20.056C72.7249 19.8337 72.3206 19.5004 72.0256 19.056C71.7345 18.6077 71.5812 18.102 71.5659 17.5388ZM79.7955 20.2456V11.8205H82.9736C83.533 11.8205 83.9602 11.8474 84.2552 11.901C84.669 11.97 85.0157 12.1021 85.2954 12.2975C85.5751 12.4891 85.7992 12.7592 85.9678 13.1079C86.1402 13.4565 86.2264 13.8396 86.2264 14.2573C86.2264 14.9737 85.9984 15.581 85.5425 16.079C85.0866 16.5733 84.2629 16.8204 83.0713 16.8204H80.9105V20.2456H79.7955ZM80.9105 15.8262H83.0886C83.8088 15.8262 84.3203 15.6921 84.623 15.4239C84.9257 15.1557 85.077 14.7783 85.077 14.2917C85.077 13.9393 84.987 13.6385 84.8069 13.3895C84.6307 13.1366 84.397 12.9699 84.1058 12.8895C83.918 12.8397 83.5713 12.8148 83.0656 12.8148H80.9105V15.8262ZM87.3068 16.1423C87.3068 14.7438 87.6823 13.65 88.4332 12.8607C89.1842 12.0677 90.1535 11.6711 91.3412 11.6711C92.119 11.6711 92.8201 11.8569 93.4446 12.2286C94.0691 12.6002 94.5442 13.1194 94.8699 13.786C95.1994 14.4488 95.3641 15.2017 95.3641 16.0446C95.3641 16.899 95.1917 17.6633 94.8469 18.3376C94.5021 19.0119 94.0136 19.5234 93.3814 19.8721C92.7492 20.2169 92.0673 20.3893 91.3355 20.3893C90.5424 20.3893 89.8336 20.1977 89.2091 19.8146C88.5846 19.4315 88.1114 18.9085 87.7896 18.2457C87.4678 17.5828 87.3068 16.8817 87.3068 16.1423ZM88.4562 16.1595C88.4562 17.1748 88.7283 17.9756 89.2723 18.5617C89.8202 19.1441 90.506 19.4353 91.3297 19.4353C92.1688 19.4353 92.8584 19.1403 93.3986 18.5502C93.9427 17.9602 94.2147 17.1231 94.2147 16.0388C94.2147 15.353 94.0978 14.7553 93.8641 14.2458C93.6343 13.7324 93.2952 13.3358 92.8469 13.0561C92.4025 12.7726 91.9025 12.6309 91.347 12.6309C90.5577 12.6309 89.8777 12.9029 89.3068 13.4469C88.7398 13.9872 88.4562 14.8913 88.4562 16.1595ZM96.7951 20.2456V11.8205H97.9387L102.364 18.4353V11.8205H103.433V20.2456H102.289L97.864 13.6251V20.2456H96.7951ZM105.502 20.2456V11.8205H106.617V20.2456H105.502ZM105.214 11.3033L105.979 9.69416H107.335L106.071 11.3033H105.214ZM110.996 20.2456L107.732 11.8205H108.938L111.128 17.9411C111.304 18.4315 111.452 18.8912 111.571 19.3203C111.701 18.8606 111.852 18.4008 112.025 17.9411L114.3 11.8205H115.438L112.14 20.2456H110.996ZM116.461 20.2456V11.8205H122.553V12.8148H117.576V15.3952H122.237V16.3836H117.576V19.2514H122.748V20.2456H116.461ZM124.243 20.2456V11.8205H125.358V19.2514H129.507V20.2456H124.243ZM133.668 20.2456V11.8205H134.811L139.236 18.4353V11.8205H140.305V20.2456H139.162L134.737 13.6251V20.2456H133.668ZM141.846 16.1423C141.846 14.7438 142.221 13.65 142.972 12.8607C143.723 12.0677 144.692 11.6711 145.88 11.6711C146.658 11.6711 147.359 11.8569 147.983 12.2286C148.608 12.6002 149.083 13.1194 149.409 13.786C149.738 14.4488 149.903 15.2017 149.903 16.0446C149.903 16.899 149.73 17.6633 149.386 18.3376C149.041 19.0119 148.552 19.5234 147.92 19.8721C147.288 20.2169 146.606 20.3893 145.874 20.3893C145.081 20.3893 144.372 20.1977 143.748 19.8146C143.123 19.4315 142.65 18.9085 142.328 18.2457C142.007 17.5828 141.846 16.8817 141.846 16.1423ZM142.995 16.1595C142.995 17.1748 143.267 17.9756 143.811 18.5617C144.359 19.1441 145.045 19.4353 145.869 19.4353C146.708 19.4353 147.397 19.1403 147.937 18.5502C148.481 17.9602 148.753 17.1231 148.753 16.0388C148.753 15.353 148.637 14.7553 148.403 14.2458C148.173 13.7324 147.834 13.3358 147.386 13.0561C146.941 12.7726 146.441 12.6309 145.886 12.6309C145.096 12.6309 144.416 12.9029 143.846 13.4469C143.279 13.9872 142.995 14.8913 142.995 16.1595Z" fill="black"/>
</svg>
