<svg width="29" height="30" viewBox="0 0 29 30" fill="none" xmlns="http://www.w3.org/2000/svg">
<g id="Layer_1">
<g id="Group">
<path id="Vector" fill-rule="evenodd" clip-rule="evenodd" d="M28.4523 18.4877V18.4774H27.5155C27.6251 18.0183 27.7146 17.5488 27.7746 17.0691H27.5254V17.0592H26.3793C26.439 16.5898 26.4788 16.1208 26.499 15.6409H26.2894V15.6306H25.0435V15.3244C25.0435 14.9163 25.0236 14.5186 24.974 14.1309H24.904V14.1105H23.5087C23.449 13.6408 23.349 13.1819 23.2097 12.7329C23.1998 12.6919 23.1897 12.6514 23.1698 12.6104H23.1101V12.6001H21.7744C21.5851 12.1002 21.3458 11.6305 21.0568 11.192H21.0268V11.1819H14.7976V11.753H20.7477C20.9074 12.0182 21.0566 12.3042 21.1765 12.5999H14.7976V13.1714H21.3858C21.4856 13.4776 21.5652 13.7835 21.6249 14.1103H14.7976V14.6814H21.6947C21.7146 14.8957 21.7245 15.1101 21.7245 15.3242C21.7245 15.4265 21.7245 15.5282 21.7146 15.6303H14.7779V16.2021H21.665C21.635 16.4877 21.5851 16.7737 21.5156 17.059H14.7978V17.6203H21.346C21.2463 17.9164 21.127 18.2021 20.9872 18.4774H14.7978V19.0489H20.6683C19.4625 20.9979 17.3394 22.3041 14.9076 22.3041C13.9409 22.3041 13.0236 22.0998 12.1869 21.7222C9.77502 20.6407 8.09055 18.1817 8.09055 15.3244C8.09055 12.467 9.77502 10.0184 12.1869 8.93689C12.6852 8.71247 13.2135 8.54942 13.7716 8.45759V7.87573C13.2232 7.968 12.685 8.12075 12.1869 8.32478C9.46612 9.437 7.54233 12.1615 7.54233 15.3244C7.54233 18.4873 9.46591 21.2223 12.1869 22.3348C13.0236 22.6817 13.951 22.8754 14.9076 22.8754C17.6586 22.8754 20.0503 21.3244 21.3165 19.0489H22.1034C20.7683 21.7325 18.0372 23.5793 14.9076 23.5793C13.9508 23.5793 13.0344 23.4163 12.1869 23.0998C9.07717 21.9468 6.8447 18.896 6.8447 15.3244C6.8447 11.7528 9.07717 8.71247 12.1869 7.56979C12.6951 7.37584 13.2234 7.24303 13.7716 7.16151V6.51872C13.2232 6.59039 12.6948 6.72276 12.1869 6.89633C8.72825 8.06991 6.2267 11.4164 6.2267 15.3246C6.2267 19.2328 8.72825 22.5999 12.1869 23.7737C13.044 24.0591 13.9608 24.2223 14.9076 24.2223C18.107 24.2223 20.9177 22.4264 22.4228 19.7737C22.5621 19.539 22.6816 19.294 22.7914 19.0492H23.6984C23.559 19.3959 23.3895 19.743 23.2101 20.0799C22.981 20.498 22.7117 20.9061 22.423 21.2839C20.6786 23.5896 17.9576 25.0694 14.9078 25.0694C13.9608 25.0694 13.054 24.9263 12.1871 24.6613C8.2603 23.4573 5.38971 19.7224 5.38971 15.3246C5.38971 10.9268 8.2603 7.20249 12.1871 5.99845C12.6953 5.84548 13.2236 5.72297 13.7718 5.66182V5.01904C13.2234 5.08018 12.6951 5.19239 12.1871 5.33528C7.91138 6.5597 4.77171 10.59 4.77171 15.3244C4.77171 20.0588 7.91138 24.0998 12.1871 25.3245C13.054 25.5794 13.9709 25.7122 14.9078 25.7122C17.878 25.7122 20.5692 24.3858 22.423 22.2837C22.712 21.9569 22.971 21.6203 23.2101 21.2736C23.5091 20.8447 23.7686 20.3959 23.9974 19.9164C24.137 19.6306 24.2569 19.345 24.3761 19.0492H25.3329C25.1538 19.5594 24.9444 20.0492 24.7051 20.5285C24.496 20.9471 24.2569 21.345 23.9976 21.7224C23.7583 22.0897 23.4892 22.4367 23.2103 22.7632C22.9609 23.0492 22.7021 23.3247 22.4232 23.5896C20.4495 25.4774 17.8084 26.6304 14.9081 26.6304C13.9711 26.6304 13.0543 26.5081 12.1873 26.2835C7.41304 25.0288 3.875 20.5898 3.875 15.3246C3.875 10.0594 7.41283 5.63136 12.1873 4.38612C12.6955 4.24345 13.2339 4.15162 13.772 4.09004V3.5187C13.2339 3.57984 12.7056 3.67167 12.1873 3.79396C7.10329 5.05936 3.31608 9.75324 3.31608 15.3244C3.31608 20.8956 7.10329 25.5997 12.1864 26.8649C13.0635 27.0793 13.9702 27.2018 14.9072 27.2018C17.7778 27.2018 20.3988 26.1301 22.4223 24.3547C22.7013 24.1097 22.9603 23.8649 23.2094 23.5995C23.4884 23.3036 23.7476 22.9977 23.9968 22.6812C24.2461 22.3547 24.485 22.0181 24.7042 21.6608C24.9637 21.2427 25.2026 20.8037 25.4122 20.3446C25.6012 19.9264 25.7709 19.4873 25.9203 19.0487H26.7875C26.7278 19.2324 26.6679 19.4158 26.6079 19.5997C26.4285 20.0893 26.2292 20.569 26.0098 21.0284C25.8208 21.3952 25.6213 21.763 25.4122 22.1097C25.1927 22.4669 24.9536 22.8035 24.7042 23.1401C24.4752 23.4259 24.2459 23.7117 23.9968 23.9773C23.7476 24.2629 23.4783 24.5178 23.2094 24.7729C22.9601 25.0078 22.6912 25.232 22.4223 25.4463C20.3391 27.079 17.7382 28.0484 14.9072 28.0484C13.9702 28.0484 13.0635 27.9462 12.1864 27.7424C6.64498 26.4564 2.48893 21.3751 2.48893 15.324C2.48893 9.27285 6.64498 4.20268 12.1864 2.92698C12.7047 2.80447 13.233 2.72251 13.7712 2.67166V2.1001C13.233 2.14109 12.7047 2.23269 12.1864 2.34512C6.33609 3.63113 1.93087 8.97765 1.93087 15.3244C1.93087 21.6711 6.33609 27.0286 12.1864 28.3243C13.0635 28.518 13.9803 28.6201 14.9072 28.6201C17.7179 28.6201 20.299 27.7017 22.4223 26.1511C22.6912 25.9469 22.9603 25.7428 23.2094 25.5285C23.4783 25.2938 23.7476 25.049 23.9968 24.7939C24.2461 24.5489 24.4754 24.2936 24.7042 24.0284C24.9536 23.7325 25.1829 23.4266 25.4122 23.1204C25.6213 22.814 25.8208 22.5081 26.0098 22.1916C26.2194 21.8346 26.4189 21.4573 26.6079 21.0696C26.9074 20.4163 27.1662 19.7428 27.3655 19.0492H28.153C27.8039 20.345 27.2859 21.5695 26.6079 22.692C26.4189 22.9981 26.2194 23.3043 26.0098 23.5999C25.8105 23.8653 25.6114 24.1305 25.4122 24.3755C25.1829 24.651 24.9436 24.9162 24.7042 25.1713C24.4752 25.4163 24.2359 25.6407 23.9968 25.8651C23.7375 26.0898 23.4783 26.314 23.2094 26.518C22.9601 26.722 22.6912 26.916 22.4223 27.0898C20.2594 28.5489 17.6881 29.3959 14.9072 29.3959C13.9803 29.3959 13.0635 29.3041 12.1864 29.1207C5.91759 27.8139 1.1733 22.1202 1.1733 15.3244C1.1733 8.5286 5.91759 2.84545 12.1864 1.54958C12.7047 1.43716 13.233 1.36571 13.7712 1.31487V0.74353C13.233 0.794374 12.7047 0.8656 12.1864 0.967727C5.6087 2.28419 0.615234 8.23296 0.615234 15.3244C0.615234 22.4158 5.6087 28.3856 12.1864 29.6916C13.0635 29.8752 13.9803 29.9669 14.9072 29.9669C17.668 29.9669 20.2395 29.161 22.4223 27.763C22.6912 27.5894 22.9502 27.4161 23.2094 27.2221C23.4783 27.0284 23.7375 26.8242 23.9968 26.6096C24.2359 26.4058 24.4754 26.1915 24.7042 25.967C24.9436 25.7323 25.1829 25.4871 25.4122 25.2322C25.6114 25.008 25.8105 24.7731 26.0098 24.5281C26.2194 24.2629 26.4189 23.9977 26.6079 23.7119C27.6744 22.161 28.4521 20.3959 28.8607 18.4877H28.4521H28.4523ZM22.4225 13.1716H22.6914C22.771 13.4881 22.831 13.794 22.8806 14.1105H22.183C22.1336 13.784 22.0533 13.4778 21.9636 13.1716H22.4223H22.4225ZM22.4225 18.304C22.4022 18.3652 22.3823 18.4162 22.3525 18.4774H21.605C21.7247 18.2021 21.8343 17.9161 21.9238 17.6203H22.6516C22.5818 17.855 22.5124 18.0796 22.4225 18.304ZM22.7912 17.0592H22.0837C22.1434 16.7737 22.1933 16.4877 22.2331 16.2023H22.9209C22.8909 16.4879 22.8513 16.7739 22.7912 17.0592ZM22.9605 15.6306H22.2729V15.3244C22.2729 15.1103 22.2729 14.8957 22.253 14.6816H22.9408C22.9607 14.8959 22.9708 15.1103 22.9708 15.3244C22.9708 15.4267 22.9708 15.5284 22.9607 15.6306H22.9605ZM23.997 18.2122C23.967 18.304 23.9373 18.3856 23.9073 18.4774H23.0303C23.09 18.304 23.1501 18.1202 23.2097 17.9365C23.2396 17.8346 23.2694 17.7222 23.2993 17.6203H24.1567C24.1068 17.8245 24.0571 18.0183 23.997 18.2122ZM24.2763 17.0592H23.4293C23.4787 16.7737 23.5188 16.4877 23.5489 16.2023H24.3861C24.3562 16.4879 24.3262 16.7739 24.2765 17.0592H24.2763ZM24.4157 15.6306H23.5883V15.3244C23.5883 15.1103 23.5883 14.8957 23.5684 14.6816H24.4061C24.4157 14.8959 24.426 15.1103 24.426 15.3244C24.426 15.4267 24.426 15.5284 24.4157 15.6306ZM25.5121 18.4774H24.5653C24.6148 18.3244 24.6646 18.1611 24.7045 18.008C24.7344 17.8754 24.7644 17.7529 24.7946 17.6201H25.7213C25.6615 17.9161 25.5918 18.1916 25.5121 18.4772V18.4774ZM25.8212 17.0592H24.904C24.9538 16.7737 24.9838 16.4877 25.0136 16.2023H25.9107C25.8908 16.4879 25.8608 16.7739 25.8212 17.0592ZM26.9472 18.4774H26.0798C26.1599 18.1918 26.2295 17.9063 26.2793 17.6203H27.1266C27.0769 17.9063 27.0168 18.1918 26.947 18.4774H26.9472Z" fill="white"/>
</g>
</g>
</svg>
