<svg width="177" height="50" viewBox="0 0 177 50" fill="none" xmlns="http://www.w3.org/2000/svg">
<path fill-rule="evenodd" clip-rule="evenodd" d="M0.182115 36.475C0.278385 36.6946 0.55838 37.0629 0.804295 37.2934C1.10505 37.5754 1.43196 37.766 1.80313 37.876C2.24541 38.007 2.6016 38.0273 3.59799 37.978C4.28167 37.9443 8.30062 37.8497 12.529 37.7679C16.7573 37.6862 20.3491 37.5921 20.5107 37.5589C20.6722 37.5258 20.9647 37.416 21.1604 37.3151C21.3561 37.2141 21.6603 36.9847 21.8362 36.8055C22.0122 36.6261 22.2367 36.2988 22.3351 36.078C22.4509 35.818 22.5148 35.4381 22.5162 34.9997C22.5173 34.6274 22.4565 34.172 22.3809 33.9876C22.3054 33.8034 22.074 33.4608 21.8668 33.2263C21.6595 32.9919 21.2917 32.7101 21.0493 32.6002C20.658 32.4228 20.4218 32.4024 18.9437 32.419C18.028 32.4292 15.1414 32.4805 12.529 32.5329C9.91655 32.5853 6.54514 32.6553 5.03694 32.6887C3.09245 32.7316 2.14297 32.7918 1.77307 32.8955C1.42236 32.9938 1.10495 33.1791 0.804588 33.4609C0.558772 33.6914 0.27574 34.0747 0.175553 34.3125C0.0547991 34.5991 -0.0043536 34.9695 0.000249339 35.4104C0.00446054 35.82 0.0743863 36.2293 0.182115 36.475ZM7.81731 46.2626C7.91681 46.4857 8.13208 46.8238 8.29582 47.0138C8.45947 47.2037 8.80078 47.4647 9.05423 47.5938C9.38858 47.7639 9.68004 47.8281 10.1161 47.8275C10.5502 47.8269 11.8191 47.5454 14.6835 46.8141C16.865 46.2572 19.1927 45.6604 19.8562 45.4882C20.5499 45.3079 21.2364 45.0622 21.4721 44.9096C21.6974 44.7637 22.0037 44.4645 22.1527 44.2448C22.3017 44.025 22.475 43.5953 22.5379 43.2899C22.627 42.8573 22.625 42.6106 22.5288 42.1726C22.4564 41.843 22.2753 41.4368 22.0912 41.1907C21.9184 40.9598 21.5754 40.6439 21.3289 40.4886C21.0429 40.3084 20.6897 40.1867 20.3529 40.1525C19.9 40.1064 19.0887 40.2857 14.6346 41.4167C11.7798 42.1415 9.30857 42.7915 9.14306 42.8609C8.97755 42.9305 8.67307 43.1386 8.46652 43.3235C8.25988 43.5084 7.98811 43.8846 7.86246 44.1594C7.70244 44.5097 7.63447 44.8382 7.63535 45.258C7.63604 45.6249 7.70655 46.014 7.81731 46.2626ZM7.83602 25.147C7.94571 25.394 8.15411 25.7227 8.29906 25.8775C8.444 26.0323 8.69726 26.2439 8.86189 26.3478C9.02652 26.4516 9.77572 26.7362 10.5268 26.9802C11.2778 27.2242 13.6111 27.9946 15.7118 28.6922C18.6612 29.6716 19.654 29.9616 20.0699 29.9653C20.4107 29.9683 20.7762 29.8944 21.0646 29.764C21.3154 29.6506 21.7009 29.3687 21.9211 29.1373C22.1789 28.8667 22.3742 28.5366 22.469 28.2112C22.5499 27.9332 22.6163 27.5422 22.6163 27.3424C22.6163 27.1425 22.5428 26.7592 22.453 26.4907C22.3508 26.1851 22.1218 25.8318 21.8409 25.5464C21.503 25.2032 21.2105 25.0253 20.6576 24.8268C20.2536 24.6818 19.2399 24.3397 18.4051 24.0667C17.5702 23.7937 15.4988 23.1077 13.8021 22.5423C11.2517 21.6926 10.6153 21.515 10.1296 21.5178C9.69365 21.5203 9.41248 21.5886 9.04052 21.7822C8.76474 21.9257 8.41638 22.1913 8.26644 22.3724C8.11641 22.5535 7.91329 22.8814 7.81506 23.1009C7.70567 23.3456 7.63653 23.732 7.63653 24.099C7.63653 24.4879 7.70645 24.8552 7.83602 25.147ZM28.1349 21.5539C28.3168 22.1303 28.5344 22.7815 28.6182 23.0011C28.702 23.2207 28.9992 23.9618 29.2787 24.6479C29.5581 25.3341 29.9311 26.2548 30.1076 26.694C30.2841 27.1331 30.6806 28.1212 30.9888 28.8897C31.297 29.6582 31.6942 30.6463 31.8716 31.0855C32.049 31.5246 32.5451 32.7597 32.974 33.8301C33.403 34.9006 33.9539 36.2704 34.1982 36.8742C34.4426 37.4781 34.8406 38.4662 35.0828 39.07C35.325 39.6738 35.7656 40.7742 36.062 41.5153C36.3584 42.2563 36.8067 43.3791 37.0582 44.0104C37.3097 44.6417 37.6871 45.5224 37.8968 45.9675C38.207 46.626 38.4215 46.9142 39.0479 47.5145C39.4712 47.9202 40.0651 48.3795 40.3675 48.5353C40.6954 48.7041 41.2803 48.8808 41.8163 48.9729C42.6424 49.1148 42.7833 49.1136 43.5591 48.9583C44.0663 48.8567 44.6064 48.6709 44.912 48.4926C45.1918 48.3294 45.6421 47.9932 45.9127 47.7453C46.1832 47.4974 46.5542 47.0834 46.7369 46.8253C46.9198 46.5671 47.2079 46.0864 47.3772 45.757C47.5466 45.4277 47.8881 44.6192 48.136 43.9605C48.384 43.3018 48.9813 41.64 49.4635 40.2677C49.9457 38.8953 50.5663 37.1662 50.8426 36.4251C51.119 35.684 51.3708 35.0461 51.4022 35.0074C51.4335 34.9685 51.8516 36.0015 52.3312 37.3029C52.8107 38.6042 53.433 40.2976 53.714 41.0661C53.995 41.8346 54.4061 42.9454 54.6277 43.5345C54.8494 44.1236 55.2349 45.0443 55.4846 45.5806C55.8771 46.4236 56.0528 46.6703 56.7833 47.4038C57.2479 47.8704 57.8582 48.3779 58.1396 48.5315C58.421 48.6852 58.9686 48.8783 59.3565 48.9606C59.7918 49.0531 60.2707 49.0874 60.6077 49.0502C60.908 49.0169 61.374 48.9423 61.6433 48.8842C61.9126 48.8262 62.4014 48.6284 62.7295 48.4445C63.0742 48.2515 63.5927 47.8224 63.9575 47.4283C64.3048 47.0531 64.7284 46.4943 64.8988 46.1865C65.0694 45.8787 65.3626 45.2295 65.5504 44.7438C65.7383 44.258 66.1638 43.187 66.4958 42.3636C66.8278 41.5402 67.2443 40.5072 67.4214 40.0681C67.5985 39.6289 67.9955 38.6408 68.3037 37.8723C68.6119 37.1038 69.0133 36.1045 69.1955 35.6516C69.3779 35.1988 69.6766 34.4577 69.8594 34.0048C70.0422 33.5519 70.4439 32.5526 70.7521 31.7841C71.0603 31.0156 71.4661 30.0051 71.6538 29.5385C71.8415 29.0719 72.2275 28.1062 72.5116 27.3926C72.7956 26.679 73.3821 25.2193 73.8146 24.1489C74.2473 23.0785 74.6988 21.8442 74.8179 21.4059C74.9784 20.8155 75.0225 20.4384 74.9882 19.9499C74.9534 19.4557 74.8604 19.135 74.6162 18.6681C74.416 18.2852 74.0562 17.8274 73.6818 17.4792C73.3471 17.1677 72.8311 16.7645 72.5353 16.5832C72.2395 16.4018 71.5592 16.0532 71.0237 15.8084C70.3565 15.5034 69.8004 15.3263 69.2578 15.2456C68.6572 15.1565 68.3195 15.1557 67.8608 15.2427C67.5281 15.3057 67.0694 15.4493 66.8416 15.5617C66.6137 15.6741 66.2403 15.9293 66.0116 16.1287C65.7829 16.3283 65.4172 16.7378 65.199 17.0389C64.9807 17.34 64.6357 17.9513 64.4324 18.3973C64.229 18.8435 63.8404 19.8372 63.5689 20.6058C63.2974 21.3743 62.6949 23.0585 62.23 24.3485C61.7651 25.6385 61.1571 27.3324 60.8789 28.1127C60.6007 28.893 60.3377 29.4954 60.2945 29.4514C60.2514 29.4074 59.9943 28.7689 59.7233 28.0327C59.4523 27.2964 58.92 25.8182 58.5406 24.7477C58.1612 23.6773 57.7001 22.3748 57.5161 21.8533C57.332 21.3319 57.0673 20.5683 56.9278 20.1566C56.7884 19.7449 56.5668 19.1737 56.4354 18.8873C56.3041 18.6008 56.0028 18.0982 55.766 17.7704C55.5292 17.4426 55.1047 16.9884 54.8226 16.7612C54.5406 16.5339 54.1057 16.2426 53.8563 16.1139C53.6069 15.985 53.1351 15.809 52.808 15.7226C52.4809 15.6362 51.8653 15.5655 51.44 15.5655C51.0147 15.5655 50.4041 15.6343 50.0831 15.7182C49.762 15.8023 49.2724 15.983 48.9949 16.1199C48.7175 16.2569 48.272 16.5463 48.0048 16.763C47.7377 16.9798 47.3425 17.3957 47.1264 17.6872C46.9105 17.9788 46.6409 18.4028 46.5274 18.6295C46.4139 18.8561 45.9256 20.1571 45.4422 21.5204C44.9589 22.8837 44.1176 25.256 43.5726 26.7921C43.0277 28.3282 42.5691 29.5981 42.5534 29.614C42.5378 29.63 42.4019 29.2939 42.2515 28.8672C42.1012 28.4404 41.6297 27.1256 41.2039 25.9454C40.7781 24.7652 40.1866 23.1483 39.8893 22.3524C39.5922 21.5564 39.2382 20.6132 39.1029 20.2564C38.9675 19.8996 38.6578 19.0912 38.4147 18.4599C38.1715 17.8286 37.8693 17.1287 37.7429 16.9045C37.6165 16.6804 37.3287 16.3271 37.1033 16.1197C36.8778 15.9121 36.4586 15.6326 36.1714 15.4987C35.8627 15.3546 35.3754 15.2318 34.9787 15.1978C34.5322 15.1597 34.0384 15.1961 33.5025 15.3068C33.0596 15.3983 32.3351 15.6091 31.8924 15.7753C31.4498 15.9416 30.7371 16.2656 30.3087 16.4952C29.8404 16.7463 29.2849 17.1559 28.9157 17.5223C28.5495 17.8857 28.2167 18.3289 28.0911 18.6202C27.9648 18.9134 27.8654 19.3879 27.8424 19.8073C27.81 20.3952 27.8565 20.6722 28.1349 21.5539ZM77.4685 33.7303C77.5121 34.2518 77.6388 35.1276 77.7502 35.6766C77.8614 36.2255 78.067 37.0339 78.2068 37.4731C78.3467 37.9122 78.6957 38.7656 78.9824 39.3694C79.269 39.9732 79.6923 40.7592 79.9229 41.116C80.1536 41.4728 80.5763 42.0772 80.8621 42.4589C81.148 42.8407 81.7007 43.4919 82.0901 43.9061C82.4796 44.3203 83.1272 44.9473 83.5291 45.2994C83.9311 45.6516 84.6895 46.2266 85.2146 46.5771C85.7397 46.9278 86.5906 47.4153 87.1058 47.6606C87.6208 47.906 88.4046 48.2422 88.8475 48.408C89.2903 48.5737 90.114 48.8212 90.6779 48.9579C91.2419 49.0947 92.1012 49.2493 92.5877 49.3016C93.0741 49.3538 93.9128 49.3965 94.4515 49.3965C94.9901 49.3965 95.8364 49.353 96.3321 49.2998C96.8279 49.2465 97.7011 49.0904 98.2725 48.9527C98.844 48.8151 99.6943 48.5652 100.162 48.3974C100.63 48.2295 101.475 47.8679 102.039 47.5939C102.603 47.3198 103.489 46.8073 104.008 46.455C104.528 46.1027 105.399 45.3818 105.945 44.853C106.49 44.3243 107.216 43.5478 107.558 43.1276C107.9 42.7074 108.4 42.0268 108.67 41.6151C108.94 41.2034 109.341 40.5297 109.561 40.118C109.781 39.7063 110.095 39.0232 110.259 38.6001C110.422 38.177 110.669 37.4216 110.807 36.9213C110.945 36.4211 111.122 35.5781 111.2 35.048C111.278 34.5178 111.371 33.5665 111.405 32.9341C111.442 32.2671 111.42 31.2601 111.352 30.5365C111.288 29.8504 111.15 28.8549 111.046 28.3244C110.941 27.7938 110.722 26.9405 110.558 26.4281C110.395 25.9156 110.047 25.0472 109.785 24.4982C109.523 23.9493 109.056 23.1184 108.747 22.6518C108.438 22.1852 107.938 21.5138 107.635 21.1598C107.333 20.8059 106.821 20.2503 106.497 19.9252C106.174 19.6 105.579 19.0626 105.175 18.7307C104.771 18.3989 104.06 17.8717 103.594 17.559C103.128 17.2464 102.335 16.7852 101.831 16.534C101.327 16.283 100.541 15.94 100.083 15.7717C99.6249 15.6035 98.7655 15.3498 98.173 15.2082C97.2672 14.9917 96.7761 14.942 95.0881 14.896C93.7905 14.8607 92.7687 14.8833 92.199 14.9598C91.7142 15.0249 90.8989 15.1863 90.3872 15.3184C89.8755 15.4506 89.0934 15.6945 88.6491 15.8604C88.205 16.0262 87.4338 16.3704 86.9353 16.625C86.4369 16.8796 85.6985 17.3133 85.2946 17.5888C84.8906 17.8643 84.2956 18.2937 83.9725 18.5432C83.6493 18.7926 82.9724 19.4037 82.4685 19.901C81.9644 20.3985 81.2985 21.1198 80.9888 21.504C80.6789 21.8883 80.2268 22.5171 79.9842 22.9013C79.7416 23.2856 79.3862 23.9144 79.1945 24.2986C79.0028 24.6829 78.733 25.2751 78.5949 25.6148C78.4569 25.9543 78.2378 26.6055 78.1081 27.062C77.9784 27.5183 77.8018 28.2754 77.7156 28.7445C77.6294 29.2136 77.5153 30.1343 77.4619 30.7905C77.4086 31.4468 77.3705 32.1634 77.3771 32.3829C77.3838 32.6025 77.4249 33.2088 77.4685 33.7303ZM88.6253 30.3541C88.733 29.897 88.9398 29.3131 89.0852 29.0566C89.2306 28.8001 89.4838 28.4172 89.648 28.2057C89.8121 27.9942 90.2102 27.6191 90.5326 27.3722C90.855 27.1251 91.3178 26.8206 91.5609 26.6955C91.8041 26.5703 92.2173 26.3941 92.479 26.3039C92.7408 26.2138 93.2798 26.0939 93.6767 26.0376C94.1885 25.9651 94.634 25.9682 95.2077 26.0482C95.6528 26.1104 96.3477 26.2914 96.7522 26.4508C97.1565 26.6101 97.7299 26.9071 98.0261 27.1108C98.3224 27.3144 98.7639 27.6893 99.0075 27.9439C99.251 28.1985 99.5946 28.6831 99.7712 29.0206C99.9477 29.3581 100.155 29.9384 100.233 30.31C100.31 30.6816 100.374 31.4378 100.375 31.9903C100.376 32.5429 100.329 33.257 100.271 33.577C100.213 33.8972 100.057 34.4088 99.9246 34.714C99.7921 35.0192 99.5096 35.504 99.2968 35.7912C99.0841 36.0785 98.6297 36.5172 98.2871 36.7664C97.9446 37.0155 97.3495 37.3779 96.9646 37.5717C96.5797 37.7655 95.9891 37.9904 95.652 38.0714C95.3149 38.1524 94.7306 38.2186 94.3535 38.2186C93.9765 38.2186 93.3959 38.1533 93.0635 38.0734C92.731 37.9935 92.1991 37.7998 91.8815 37.6431C91.5639 37.4863 91.0589 37.1922 90.7595 36.9896C90.4601 36.7871 90.015 36.4036 89.7707 36.1373C89.5263 35.871 89.2047 35.4114 89.0561 35.1159C88.9074 34.8204 88.7086 34.2643 88.6143 33.88C88.512 33.4631 88.4402 32.7791 88.4364 32.1833C88.432 31.5094 88.4934 30.9153 88.6253 30.3541ZM114.095 14.1682C114.205 14.4153 114.435 14.7673 114.607 14.9505C114.779 15.1337 115.096 15.3781 115.312 15.4936C115.606 15.6511 115.887 15.7045 116.438 15.7077C117.008 15.7109 117.26 15.6638 117.564 15.4978C117.78 15.38 118.098 15.1324 118.272 14.9474C118.451 14.7578 118.805 14.1122 119.085 13.4665C119.357 12.8369 119.761 11.9063 119.982 11.3986C120.203 10.8909 120.404 10.4754 120.428 10.4754C120.452 10.4754 121.285 10.9307 122.28 11.4872C123.979 12.4375 124.13 12.5021 124.765 12.5484C125.36 12.5918 125.508 12.5648 125.989 12.3249C126.347 12.1464 126.667 11.8832 126.916 11.5631C127.174 11.2302 127.331 10.8982 127.407 10.5225C127.489 10.1202 127.491 9.83493 127.414 9.46954C127.356 9.19387 127.245 8.84365 127.168 8.69135C127.091 8.53904 126.855 8.25519 126.643 8.06067C126.432 7.86615 125.691 7.40054 124.997 7.02587C124.302 6.65129 122.958 5.91103 122.01 5.38095C121.062 4.85078 120.141 4.36543 119.964 4.30235C119.786 4.23917 119.394 4.18856 119.092 4.18976C118.774 4.19106 118.379 4.26841 118.152 4.37391C117.936 4.47401 117.615 4.68102 117.437 4.83392C117.259 4.98672 117.008 5.32437 116.879 5.58427C116.75 5.84406 116.085 7.37649 115.401 8.98967C114.718 10.6027 114.1 12.0798 114.029 12.2719C113.958 12.464 113.899 12.8683 113.898 13.1702C113.897 13.5127 113.971 13.888 114.095 14.1682ZM114.484 33.5307C114.521 34.1071 114.648 35.0613 114.766 35.6511C114.884 36.241 115.105 37.0943 115.257 37.5474C115.409 38.0006 115.692 38.724 115.886 39.155C116.081 39.5861 116.404 40.2149 116.604 40.5523C116.805 40.8898 117.221 41.5252 117.529 41.9644C117.837 42.4035 118.376 43.0874 118.727 43.4842C119.079 43.881 119.732 44.5472 120.179 44.9647C120.626 45.3822 121.455 46.0384 122.02 46.4229C122.586 46.8076 123.489 47.3395 124.028 47.6051C124.566 47.8706 125.382 48.2278 125.84 48.399C126.297 48.5701 127.259 48.8448 127.976 49.0093C128.959 49.2349 129.635 49.3229 130.719 49.3665C131.521 49.3989 132.616 49.3762 133.198 49.3152C133.771 49.2553 134.71 49.0929 135.285 48.9543C135.86 48.8159 136.714 48.5652 137.182 48.3974C137.65 48.2295 138.494 47.8679 139.058 47.5939C139.622 47.3198 140.504 46.8091 141.017 46.459C141.53 46.1089 142.243 45.5557 142.6 45.2298C142.958 44.9037 143.568 44.2827 143.956 43.8496C144.344 43.4166 144.892 42.7479 145.175 42.3636C145.458 41.9794 145.925 41.265 146.212 40.7762C146.5 40.2873 146.905 39.486 147.112 38.9955C147.32 38.505 147.621 37.6406 147.781 37.0746C147.942 36.5086 148.146 35.5808 148.235 35.0127C148.338 34.3501 148.398 33.3537 148.4 32.2332C148.402 31.2726 148.348 30.0524 148.281 29.5216C148.213 28.9909 148.032 28.0683 147.878 27.4714C147.724 26.8745 147.449 26.0028 147.267 25.5342C147.084 25.0656 146.704 24.2591 146.422 23.7419C146.14 23.2247 145.657 22.458 145.35 22.0382C145.042 21.6183 144.55 21.012 144.258 20.6908C143.965 20.3695 143.37 19.7779 142.936 19.3758C142.501 18.9739 141.783 18.3801 141.339 18.0563C140.896 17.7326 140.182 17.2648 139.754 17.0169C139.325 16.7689 138.718 16.4493 138.405 16.3066C138.093 16.1639 137.503 15.9203 137.095 15.7653C136.686 15.6103 135.827 15.3607 135.185 15.2107C134.186 14.9774 133.734 14.9311 132.054 14.8903C130.829 14.8605 129.762 14.8868 129.214 14.9604C128.732 15.0252 127.918 15.1863 127.407 15.3184C126.895 15.4506 126.103 15.6982 125.646 15.8686C125.19 16.0391 124.396 16.3984 123.883 16.667C123.37 16.9357 122.635 17.3703 122.249 17.633C121.862 17.8957 121.198 18.3909 120.771 18.7335C120.345 19.0761 119.558 19.8172 119.023 20.3803C118.488 20.9434 117.822 21.7159 117.544 22.0969C117.266 22.4777 116.857 23.1147 116.633 23.5122C116.41 23.9098 116.035 24.676 115.799 25.2149C115.563 25.754 115.261 26.5794 115.129 27.0492C114.996 27.5191 114.799 28.4622 114.691 29.1451C114.583 29.8281 114.477 30.8584 114.456 31.4348C114.435 32.0112 114.448 32.9543 114.484 33.5307ZM125.646 30.3789C125.755 29.9453 125.958 29.3676 126.098 29.0952C126.238 28.8227 126.49 28.4246 126.659 28.2105C126.828 27.9963 127.23 27.6169 127.553 27.3673C127.877 27.1175 128.458 26.7629 128.845 26.5791C129.288 26.3685 129.901 26.1842 130.5 26.081C131.38 25.9295 131.526 25.9293 132.417 26.0785C133.109 26.1942 133.61 26.3513 134.189 26.6344C134.633 26.8514 135.283 27.2726 135.633 27.5704C136.005 27.8866 136.41 28.3515 136.607 28.6878C136.793 29.0045 137.031 29.5164 137.137 29.8252C137.275 30.2283 137.342 30.7474 137.375 31.6645C137.402 32.4543 137.374 33.1779 137.3 33.5594C137.235 33.8987 137.06 34.4465 136.912 34.7768C136.764 35.107 136.462 35.6084 136.241 35.891C136.01 36.1876 135.496 36.6363 135.027 36.952C134.579 37.2529 133.993 37.5971 133.723 37.7169C133.454 37.8367 132.969 37.9986 132.646 38.0767C132.323 38.1548 131.75 38.2186 131.373 38.2186C130.996 38.2186 130.415 38.1533 130.083 38.0734C129.75 37.9935 129.218 37.7998 128.901 37.6431C128.583 37.4863 128.078 37.1922 127.779 36.9896C127.479 36.7871 127.034 36.4036 126.79 36.1373C126.546 35.871 126.229 35.4176 126.086 35.1297C125.942 34.8418 125.743 34.2857 125.642 33.8938C125.524 33.436 125.457 32.8215 125.453 32.1743C125.45 31.4751 125.508 30.9264 125.646 30.3789ZM135.633 11.0243C135.74 11.2439 135.968 11.5757 136.14 11.7616C136.311 11.9475 136.69 12.2108 136.981 12.3466C137.41 12.5467 137.625 12.586 138.114 12.5541C138.657 12.5185 138.897 12.4167 140.481 11.5497C141.45 11.019 142.31 10.5609 142.391 10.5318C142.502 10.4915 142.678 10.8219 143.118 11.8992C143.438 12.6806 143.853 13.6484 144.041 14.05C144.258 14.5145 144.526 14.9055 144.778 15.1251C144.995 15.3149 145.392 15.5366 145.66 15.6177C145.928 15.6988 146.283 15.7648 146.448 15.7645C146.613 15.7642 146.921 15.7152 147.132 15.6558C147.342 15.5962 147.683 15.4336 147.889 15.2944C148.096 15.1553 148.394 14.8419 148.553 14.598C148.711 14.3541 148.888 13.9316 148.945 13.659C149.017 13.3158 149.019 13.023 148.949 12.7064C148.894 12.4551 148.25 10.8285 147.517 9.09177C146.785 7.35513 146.105 5.7712 146.006 5.57209C145.907 5.37287 145.627 5.03084 145.383 4.81186C145.135 4.58919 144.743 4.35784 144.495 4.28698C144.239 4.21382 143.81 4.18258 143.481 4.21292C143.008 4.25664 142.661 4.40186 141.451 5.06388C140.648 5.50293 139.242 6.27462 138.326 6.77895C137.411 7.28317 136.507 7.82073 136.319 7.97343C136.13 8.12624 135.855 8.48734 135.707 8.77588C135.491 9.19477 135.437 9.43391 135.437 9.96278C135.437 10.4241 135.497 10.7463 135.633 11.0243ZM150.918 22.8001C150.968 23.2934 151.081 23.9221 151.169 24.1974C151.257 24.4726 151.429 24.8999 151.551 25.147C151.673 25.394 151.877 25.695 152.004 25.8158C152.131 25.9366 152.434 26.1248 152.676 26.2339C152.918 26.3429 153.402 26.4796 153.752 26.5374C154.101 26.5953 154.86 26.6429 155.437 26.6433C156.486 26.6441 156.486 26.6441 156.518 36.0508C156.547 44.2157 156.571 45.5235 156.703 45.9566C156.787 46.2311 156.97 46.6858 157.11 46.967C157.251 47.2482 157.561 47.6536 157.799 47.8677C158.05 48.0925 158.497 48.3513 158.857 48.48C159.2 48.6026 159.811 48.7461 160.215 48.7988C160.619 48.8516 161.412 48.8948 161.978 48.8948C162.543 48.8948 163.336 48.8511 163.74 48.7977C164.144 48.7444 164.749 48.6078 165.084 48.4942C165.482 48.3595 165.86 48.1356 166.17 47.8508C166.481 47.5664 166.74 47.2025 166.914 46.8086C167.06 46.4756 167.228 45.9681 167.287 45.6808C167.357 45.3352 167.406 42.0023 167.432 35.8383C167.471 26.5184 167.471 26.5184 167.932 26.583C168.185 26.6184 169.384 26.6741 170.596 26.7066C172.387 26.7547 172.932 26.7368 173.51 26.6103C173.901 26.5248 174.486 26.3338 174.809 26.1859C175.144 26.0326 175.549 25.7461 175.75 25.5193C175.944 25.3005 176.185 24.9315 176.285 24.6993C176.386 24.4671 176.54 23.9451 176.627 23.5393C176.737 23.0295 176.786 22.3081 176.786 21.2046C176.785 20.1488 176.733 19.3402 176.63 18.8182C176.545 18.384 176.383 17.845 176.269 17.6205C176.156 17.396 175.945 17.0858 175.802 16.9311C175.659 16.7764 175.314 16.517 175.036 16.3547C174.757 16.1923 174.14 15.9718 173.665 15.8646C173.122 15.7425 172.434 15.6699 171.82 15.6704C171.281 15.6709 170.224 15.7364 169.47 15.8159C168.715 15.8955 167.955 15.9616 167.78 15.9627C167.462 15.9648 167.462 15.9648 167.462 14.0934C167.462 12.509 167.488 12.1695 167.634 11.8796C167.735 11.677 167.965 11.4527 168.196 11.3306C168.535 11.1524 168.836 11.1154 170.4 11.0608C171.906 11.0081 172.314 10.9605 172.818 10.7791C173.165 10.6542 173.615 10.3902 173.869 10.1619C174.144 9.91547 174.423 9.52713 174.599 9.14606C174.756 8.80672 174.938 8.28214 175.002 7.98022C175.067 7.67831 175.144 6.80251 175.172 6.03399C175.203 5.19711 175.177 4.278 175.107 3.74233C175.043 3.25048 174.905 2.60254 174.802 2.30252C174.699 2.0024 174.494 1.58092 174.348 1.36584C174.202 1.15076 173.86 0.843552 173.588 0.683262C173.316 0.522873 172.795 0.297905 172.43 0.183228C171.816 -0.00959778 171.595 -0.0218735 169.492 0.0204468C167.676 0.0568733 167.03 0.107975 166.287 0.273754C165.775 0.387833 164.96 0.624077 164.475 0.798641C163.99 0.973103 163.417 1.20635 163.202 1.31684C162.986 1.42742 162.438 1.76377 161.983 2.06449C161.529 2.3651 160.797 2.98151 160.358 3.43423C159.919 3.88695 159.264 4.6891 158.903 5.21698C158.542 5.74475 158.056 6.57115 157.823 7.05342C157.59 7.53568 157.285 8.28962 157.144 8.72877C157.003 9.16792 156.815 9.88653 156.726 10.3257C156.613 10.8863 156.551 11.8412 156.519 13.5312C156.474 15.9383 156.474 15.9383 155.018 15.9859C153.626 16.0314 153.535 16.0474 152.931 16.3505C152.583 16.5249 152.156 16.8337 151.981 17.0367C151.806 17.2398 151.543 17.6767 151.397 18.0078C151.25 18.3387 151.083 18.8367 151.026 19.1141C150.968 19.3916 150.9 20.1327 150.874 20.761C150.848 21.3892 150.868 22.3068 150.918 22.8001Z" fill="url(#paint0_linear_7202_4183)"/>
<defs>
<linearGradient id="paint0_linear_7202_4183" x1="44.2639" y1="3.82896" x2="136.546" y2="48.6882" gradientUnits="userSpaceOnUse">
<stop stop-color="#FD0479"/>
<stop offset="1" stop-color="#FF6B45"/>
</linearGradient>
</defs>
</svg>
