<svg width="26" height="26" viewBox="0 0 26 26" fill="none" xmlns="http://www.w3.org/2000/svg">
<g id="MEDICATION">
<path id="Union" d="M9.34375 22.75C7.64653 22.75 6.20642 22.1585 5.02342 20.9755C3.84042 19.7925 3.24928 18.3531 3.25 16.6573C3.25 15.8448 3.40347 15.0684 3.71042 14.3282C4.01736 13.5879 4.45972 12.9285 5.0375 12.35L12.35 5.0375C12.9278 4.45972 13.5868 4.01736 14.3271 3.71042C15.0674 3.40347 15.8438 3.25 16.6563 3.25C18.3535 3.25 19.7936 3.84114 20.9766 5.02342C22.1596 6.20569 22.7507 7.64581 22.75 9.34375C22.75 10.1563 22.5965 10.9326 22.2896 11.6729C21.9826 12.4132 21.5403 13.0722 20.9625 13.65L13.65 20.9625C13.0722 21.5403 12.4132 21.9826 11.6729 22.2896C10.9326 22.5965 10.1563 22.75 9.34375 22.75ZM16.5479 15.0042L19.4458 12.1333C19.8069 11.7722 20.0868 11.3479 20.2854 10.8604C20.484 10.3729 20.5833 9.86736 20.5833 9.34375C20.5833 8.26042 20.1998 7.33525 19.4328 6.56825C18.6658 5.80125 17.7403 5.41739 16.6563 5.41667C16.1326 5.41667 15.6271 5.51597 15.1396 5.71458C14.6521 5.91319 14.2278 6.19306 13.8667 6.55417L10.9958 9.45208L16.5479 15.0042ZM9.34375 20.5833C9.86736 20.5833 10.3729 20.484 10.8604 20.2854C11.3479 20.0868 11.7722 19.8069 12.1333 19.4458L15.0042 16.5479L9.45208 10.9958L6.55417 13.8667C6.19306 14.2278 5.9132 14.6521 5.71458 15.1396C5.51597 15.6271 5.41667 16.1326 5.41667 16.6563C5.41667 17.7396 5.80053 18.6651 6.56825 19.4328C7.33597 20.2006 8.26114 20.5841 9.34375 20.5833Z" fill="white"/>
</g>
</svg>
