<svg width="18" height="19" viewBox="0 0 18 19" fill="none" xmlns="http://www.w3.org/2000/svg">
<g id="PET">
<path id="Union" fill-rule="evenodd" clip-rule="evenodd" d="M11.9873 3.54513C12.2408 3.38847 12.5328 3.30546 12.8308 3.30539H13.0482V5.47133C13.0482 5.74681 13.2245 5.99138 13.4858 6.07849L16.4161 7.05525V7.71659C16.4161 8.6022 15.6974 9.32059 14.8108 9.32059H12.6436C11.0301 9.05635 10.2131 7.88695 9.9249 7.13382L11.3956 4.19241C11.5289 3.92592 11.7338 3.70179 11.9873 3.54513ZM8.81578 7.79465H5.72169C4.55807 7.79465 3.42779 7.39822 2.51865 6.67147L1.9818 6.24165V14.4511L1.98156 14.4686C1.97775 14.6081 2.00194 14.747 2.0527 14.877C2.10346 15.007 2.17976 15.1255 2.2771 15.2256C2.37444 15.3256 2.49084 15.4051 2.61942 15.4594C2.74801 15.5137 2.88617 15.5417 3.02574 15.5417C3.16532 15.5417 3.30348 15.5137 3.43207 15.4594C3.56065 15.4051 3.67705 15.3256 3.77439 15.2256C3.87173 15.1255 3.94803 15.007 3.99879 14.877C4.04955 14.747 4.07374 14.6081 4.06993 14.4686L4.06969 14.4511V13.8892C4.06969 12.9177 4.85736 12.1278 5.83106 12.1278H8.07757C9.04987 12.1278 9.8402 12.915 9.8402 13.8892V14.4511L9.83996 14.4686C9.83615 14.6081 9.86034 14.747 9.9111 14.877C9.96186 15.007 10.0382 15.1255 10.1355 15.2256C10.2328 15.3256 10.3492 15.4051 10.4778 15.4594C10.6064 15.5137 10.7446 15.5417 10.8841 15.5417C11.0237 15.5417 11.1619 15.5137 11.2905 15.4594C11.419 15.4051 11.5354 15.3256 11.6328 15.2256C11.7301 15.1255 11.8064 15.007 11.8572 14.877C11.9079 14.747 11.9321 14.6081 11.9283 14.4686L11.9281 14.4511V10.4752C10.2109 10.0139 9.2471 8.76083 8.81578 7.79465ZM12.8307 2.02539C12.2951 2.02548 11.77 2.17469 11.3143 2.4563C10.8587 2.73791 10.4904 3.14091 10.2507 3.61997L8.8034 6.51465H5.72169C4.84883 6.51465 4.00023 6.21703 3.31787 5.67165L1.7418 4.40979C1.54972 4.256 1.28647 4.22595 1.06467 4.3325C0.842873 4.43905 0.701801 4.66333 0.701801 4.90939V14.4431C0.694652 14.7504 0.748528 15.0561 0.860345 15.3425C0.973307 15.6319 1.14311 15.8956 1.35972 16.1182C1.57634 16.3408 1.83537 16.5178 2.12152 16.6386C2.40767 16.7594 2.71513 16.8217 3.02574 16.8217C3.33635 16.8217 3.64382 16.7594 3.92997 16.6386C4.21611 16.5178 4.47515 16.3408 4.69176 16.1182C4.90838 15.8956 5.07818 15.6319 5.19114 15.3425C5.30296 15.0561 5.35683 14.7504 5.34969 14.4431V13.8892C5.34969 13.6236 5.56522 13.4078 5.83106 13.4078H8.07757C8.34482 13.4078 8.5602 13.6238 8.5602 13.8892V14.4431C8.55305 14.7504 8.60693 15.0561 8.71875 15.3425C8.83171 15.6319 9.00151 15.8956 9.21813 16.1182C9.43474 16.3408 9.69377 16.5178 9.97992 16.6386C10.2661 16.7594 10.5735 16.8217 10.8841 16.8217C11.1948 16.8217 11.5022 16.7594 11.7884 16.6386C12.0745 16.5178 12.3335 16.3408 12.5502 16.1182C12.7668 15.8956 12.9366 15.6319 13.0495 15.3425C13.1614 15.0561 13.2152 14.7504 13.2081 14.4431V10.6006H14.8108C16.4034 10.6006 17.6961 9.31006 17.6961 7.71659V6.59396C17.6961 6.31849 17.5198 6.07392 17.2585 5.9868L14.3282 5.01005V2.66539C14.3282 2.31193 14.0417 2.02539 13.6882 2.02539H12.8307Z" fill="white"/>
</g>
</svg>
