<svg width="17" height="17" viewBox="0 0 17 17" fill="none" xmlns="http://www.w3.org/2000/svg">
<g id="share-icon">
<path id="Union" d="M6.40693 5.53967L7.93359 4.00634V10.3997C7.93359 10.5765 8.00383 10.7461 8.12886 10.8711C8.25388 10.9961 8.42345 11.0663 8.60026 11.0663C8.77707 11.0663 8.94664 10.9961 9.07167 10.8711C9.19669 10.7461 9.26693 10.5765 9.26693 10.3997V4.00634L10.7936 5.53967C10.8556 5.60216 10.9293 5.65175 11.0105 5.6856C11.0918 5.71944 11.1789 5.73687 11.2669 5.73687C11.3549 5.73687 11.4421 5.71944 11.5233 5.6856C11.6046 5.65175 11.6783 5.60216 11.7403 5.53967C11.8027 5.4777 11.8523 5.40396 11.8862 5.32272C11.92 5.24148 11.9375 5.15435 11.9375 5.06634C11.9375 4.97833 11.92 4.89119 11.8862 4.80995C11.8523 4.72871 11.8027 4.65498 11.7403 4.593L9.07359 1.92634C9.01019 1.86564 8.93543 1.81807 8.85359 1.78634C8.69129 1.71966 8.50924 1.71966 8.34693 1.78634C8.26509 1.81807 8.19033 1.86564 8.12693 1.92634L5.46026 4.593C5.3981 4.65516 5.34879 4.72896 5.31515 4.81017C5.28151 4.89139 5.2642 4.97843 5.2642 5.06634C5.2642 5.15424 5.28151 5.24129 5.31515 5.3225C5.34879 5.40372 5.3981 5.47751 5.46026 5.53967C5.52242 5.60183 5.59621 5.65114 5.67743 5.68478C5.75864 5.71842 5.84569 5.73573 5.93359 5.73573C6.0215 5.73573 6.10855 5.71842 6.18976 5.68478C6.27098 5.65114 6.34477 5.60183 6.40693 5.53967ZM14.6003 9.733C14.4235 9.733 14.2539 9.80324 14.1289 9.92827C14.0038 10.0533 13.9336 10.2229 13.9336 10.3997V13.0663C13.9336 13.2431 13.8634 13.4127 13.7383 13.5377C13.6133 13.6628 13.4437 13.733 13.2669 13.733H3.93359C3.75678 13.733 3.58721 13.6628 3.46219 13.5377C3.33717 13.4127 3.26693 13.2431 3.26693 13.0663V10.3997C3.26693 10.2229 3.19669 10.0533 3.07167 9.92827C2.94664 9.80324 2.77707 9.733 2.60026 9.733C2.42345 9.733 2.25388 9.80324 2.12886 9.92827C2.00383 10.0533 1.93359 10.2229 1.93359 10.3997V13.0663C1.93359 13.5968 2.14431 14.1055 2.51938 14.4806C2.89445 14.8556 3.40316 15.0663 3.93359 15.0663H13.2669C13.7974 15.0663 14.3061 14.8556 14.6811 14.4806C15.0562 14.1055 15.2669 13.5968 15.2669 13.0663V10.3997C15.2669 10.2229 15.1967 10.0533 15.0717 9.92827C14.9466 9.80324 14.7771 9.733 14.6003 9.733Z" fill="white"/>
</g>
</svg>
